<svg width="204" height="37" viewBox="0 0 204 37" fill="none" xmlns="http://www.w3.org/2000/svg">
<g clip-path="url(#clip0_508_450)">
<path d="M35.9502 19.8193H29.5201C23.9033 19.8193 19.3501 24.3726 19.3501 29.9893V36.4195C28.215 35.7621 35.2929 28.6842 35.9502 19.8193Z" fill="#704FE6"/>
<path d="M16.6505 36.4195V29.9893C16.6505 24.3726 12.0972 19.8193 6.48043 19.8193H0.050293C0.707594 28.6842 7.78552 35.7621 16.6505 36.4195Z" fill="#704FE6"/>
<path d="M35.9502 17.1197C35.2929 8.25476 28.215 1.17683 19.3501 0.519531V6.94967C19.3501 12.5664 23.9033 17.1197 29.5201 17.1197H35.9502Z" fill="#704FE6"/>
<path d="M16.6505 0.519531C7.78552 1.17683 0.707594 8.25476 0.050293 17.1197H6.48043C12.0972 17.1197 16.6505 12.5664 16.6505 6.94967V0.519531Z" fill="#704FE6"/>
<path d="M12.2246 18.4699C14.7199 17.2231 16.7534 15.1896 18.0001 12.6943C19.2469 15.1896 21.2803 17.2231 23.7757 18.4699C21.2803 19.7166 19.2469 21.7501 18.0001 24.2454C16.7534 21.7501 14.7199 19.7166 12.2246 18.4699Z" fill="#FFD25D"/>
</g>
<path d="M57.528 27.7097C56.328 27.7097 55.2 27.4937 54.144 27.0617C53.104 26.6137 52.184 25.9897 51.384 25.1897C50.6 24.3897 49.984 23.4697 49.536 22.4297C49.104 21.3737 48.888 20.2377 48.888 19.0217C48.888 17.7897 49.112 16.6537 49.56 15.6137C50.008 14.5577 50.632 13.6377 51.432 12.8537C52.232 12.0537 53.168 11.4377 54.24 11.0057C55.312 10.5577 56.472 10.3337 57.72 10.3337C59.112 10.3337 60.392 10.5977 61.56 11.1257C62.728 11.6377 63.696 12.3657 64.464 13.3097L62.256 15.5177C61.728 14.8297 61.072 14.3017 60.288 13.9337C59.504 13.5657 58.64 13.3817 57.696 13.3817C56.624 13.3817 55.672 13.6217 54.84 14.1017C54.024 14.5657 53.384 15.2217 52.92 16.0697C52.456 16.9017 52.224 17.8777 52.224 18.9977C52.224 20.1177 52.448 21.1097 52.896 21.9737C53.36 22.8217 53.984 23.4857 54.768 23.9657C55.568 24.4457 56.48 24.6857 57.504 24.6857C58.56 24.6857 59.464 24.4937 60.216 24.1097C60.968 23.7097 61.544 23.1337 61.944 22.3817C62.344 21.6137 62.544 20.6777 62.544 19.5737L64.68 21.0377L57.312 20.9657V18.1337H65.904V18.5897C65.904 20.6057 65.544 22.2937 64.824 23.6537C64.104 24.9977 63.112 26.0137 61.848 26.7017C60.6 27.3737 59.16 27.7097 57.528 27.7097ZM68.0717 27.4697V15.8777H71.2157V27.4697H68.0717ZM71.2157 21.0617L69.9917 20.2457C70.1357 18.8217 70.5517 17.7017 71.2397 16.8857C71.9277 16.0537 72.9197 15.6377 74.2157 15.6377C74.7757 15.6377 75.2797 15.7337 75.7277 15.9257C76.1757 16.1017 76.5837 16.3977 76.9517 16.8137L74.9837 19.0697C74.8077 18.8777 74.5917 18.7337 74.3357 18.6377C74.0957 18.5417 73.8157 18.4937 73.4957 18.4937C72.8237 18.4937 72.2717 18.7097 71.8397 19.1417C71.4237 19.5577 71.2157 20.1977 71.2157 21.0617ZM82.5759 27.7097C81.5199 27.7097 80.5679 27.4457 79.7199 26.9177C78.8719 26.3897 78.2079 25.6697 77.7279 24.7577C77.2479 23.8457 77.0079 22.8217 77.0079 21.6857C77.0079 20.5337 77.2479 19.5017 77.7279 18.5897C78.2079 17.6777 78.8719 16.9577 79.7199 16.4297C80.5679 15.9017 81.5199 15.6377 82.5759 15.6377C83.4079 15.6377 84.1519 15.8057 84.8079 16.1417C85.4639 16.4777 85.9839 16.9497 86.3679 17.5577C86.7679 18.1497 86.9839 18.8217 87.0159 19.5737V23.7497C86.9839 24.5177 86.7679 25.1977 86.3679 25.7897C85.9839 26.3817 85.4639 26.8537 84.8079 27.2057C84.1519 27.5417 83.4079 27.7097 82.5759 27.7097ZM83.1519 24.8057C84.0319 24.8057 84.7439 24.5177 85.2879 23.9417C85.8319 23.3497 86.1039 22.5897 86.1039 21.6617C86.1039 21.0537 85.9759 20.5177 85.7199 20.0537C85.4799 19.5737 85.1359 19.2057 84.6879 18.9497C84.2559 18.6777 83.7439 18.5417 83.1519 18.5417C82.5759 18.5417 82.0639 18.6777 81.6159 18.9497C81.1839 19.2057 80.8399 19.5737 80.5839 20.0537C80.3439 20.5177 80.2239 21.0537 80.2239 21.6617C80.2239 22.2857 80.3439 22.8377 80.5839 23.3177C80.8399 23.7817 81.1839 24.1497 81.6159 24.4217C82.0639 24.6777 82.5759 24.8057 83.1519 24.8057ZM85.9359 27.4697V24.3497L86.4399 21.5177L85.9359 18.7337V15.8777H89.0559V27.4697H85.9359ZM99.6373 27.4697V20.8217C99.6373 20.1337 99.4213 19.5737 98.9893 19.1417C98.5573 18.7097 97.9973 18.4937 97.3093 18.4937C96.8613 18.4937 96.4613 18.5897 96.1093 18.7817C95.7573 18.9737 95.4773 19.2457 95.2693 19.5977C95.0773 19.9497 94.9813 20.3577 94.9813 20.8217L93.7573 20.1977C93.7573 19.2857 93.9493 18.4937 94.3333 17.8217C94.7333 17.1337 95.2773 16.5977 95.9653 16.2137C96.6693 15.8297 97.4613 15.6377 98.3413 15.6377C99.1893 15.6377 99.9493 15.8537 100.621 16.2857C101.293 16.7017 101.821 17.2537 102.205 17.9417C102.589 18.6137 102.781 19.3417 102.781 20.1257V27.4697H99.6373ZM91.8373 27.4697V15.8777H94.9813V27.4697H91.8373ZM110.21 27.7097C109.138 27.7097 108.178 27.4457 107.33 26.9177C106.482 26.3897 105.81 25.6697 105.314 24.7577C104.834 23.8457 104.594 22.8217 104.594 21.6857C104.594 20.5337 104.834 19.5017 105.314 18.5897C105.81 17.6777 106.474 16.9577 107.306 16.4297C108.154 15.9017 109.122 15.6377 110.21 15.6377C111.042 15.6377 111.786 15.8057 112.442 16.1417C113.114 16.4777 113.65 16.9497 114.05 17.5577C114.466 18.1497 114.69 18.8217 114.722 19.5737V23.7017C114.69 24.4537 114.474 25.1337 114.074 25.7417C113.674 26.3497 113.138 26.8297 112.466 27.1817C111.794 27.5337 111.042 27.7097 110.21 27.7097ZM110.738 24.8057C111.33 24.8057 111.842 24.6777 112.274 24.4217C112.722 24.1497 113.066 23.7817 113.306 23.3177C113.562 22.8377 113.69 22.2857 113.69 21.6617C113.69 21.0537 113.562 20.5177 113.306 20.0537C113.066 19.5737 112.722 19.2057 112.274 18.9497C111.842 18.6777 111.338 18.5417 110.762 18.5417C110.17 18.5417 109.65 18.6777 109.202 18.9497C108.77 19.2217 108.426 19.5897 108.17 20.0537C107.93 20.5177 107.81 21.0537 107.81 21.6617C107.81 22.2857 107.93 22.8377 108.17 23.3177C108.426 23.7817 108.778 24.1497 109.226 24.4217C109.674 24.6777 110.178 24.8057 110.738 24.8057ZM116.642 27.4697H113.522V24.3497L114.026 21.5177L113.498 18.7337V10.1177H116.642V27.4697ZM119.759 27.4697V10.5977H123.023V27.4697H119.759ZM122.159 27.4697V24.5657H130.751V27.4697H122.159ZM132.759 27.4697V15.8777H135.927V27.4697H132.759ZM134.343 14.0057C133.831 14.0057 133.407 13.8377 133.071 13.5017C132.735 13.1497 132.567 12.7177 132.567 12.2057C132.567 11.7097 132.735 11.2857 133.071 10.9337C133.407 10.5817 133.831 10.4057 134.343 10.4057C134.871 10.4057 135.295 10.5817 135.615 10.9337C135.951 11.2857 136.119 11.7097 136.119 12.2057C136.119 12.7177 135.951 13.1497 135.615 13.5017C135.295 13.8377 134.871 14.0057 134.343 14.0057ZM145.144 27.7097C144.312 27.7097 143.56 27.5337 142.888 27.1817C142.216 26.8297 141.68 26.3497 141.28 25.7417C140.88 25.1337 140.664 24.4537 140.632 23.7017V19.5737C140.664 18.8217 140.88 18.1497 141.28 17.5577C141.696 16.9497 142.24 16.4777 142.912 16.1417C143.584 15.8057 144.328 15.6377 145.144 15.6377C146.216 15.6377 147.176 15.9017 148.024 16.4297C148.872 16.9577 149.536 17.6777 150.016 18.5897C150.512 19.5017 150.76 20.5337 150.76 21.6857C150.76 22.8217 150.512 23.8457 150.016 24.7577C149.536 25.6697 148.872 26.3897 148.024 26.9177C147.176 27.4457 146.216 27.7097 145.144 27.7097ZM138.712 27.4697V10.1177H141.856V18.7337L141.328 21.5177L141.832 24.3497V27.4697H138.712ZM144.616 24.8057C145.192 24.8057 145.696 24.6777 146.128 24.4217C146.576 24.1497 146.92 23.7817 147.16 23.3177C147.416 22.8377 147.544 22.2857 147.544 21.6617C147.544 21.0537 147.416 20.5177 147.16 20.0537C146.92 19.5737 146.576 19.2057 146.128 18.9497C145.68 18.6777 145.168 18.5417 144.592 18.5417C144.016 18.5417 143.504 18.6777 143.056 18.9497C142.624 19.2057 142.28 19.5737 142.024 20.0537C141.784 20.5177 141.664 21.0537 141.664 21.6617C141.664 22.2857 141.784 22.8377 142.024 23.3177C142.28 23.7817 142.632 24.1497 143.08 24.4217C143.528 24.6777 144.04 24.8057 144.616 24.8057ZM152.822 27.4697V15.8777H155.966V27.4697H152.822ZM155.966 21.0617L154.742 20.2457C154.886 18.8217 155.302 17.7017 155.99 16.8857C156.678 16.0537 157.67 15.6377 158.966 15.6377C159.526 15.6377 160.03 15.7337 160.478 15.9257C160.926 16.1017 161.334 16.3977 161.702 16.8137L159.734 19.0697C159.558 18.8777 159.342 18.7337 159.086 18.6377C158.846 18.5417 158.566 18.4937 158.246 18.4937C157.574 18.4937 157.022 18.7097 156.59 19.1417C156.174 19.5577 155.966 20.1977 155.966 21.0617ZM167.326 27.7097C166.27 27.7097 165.318 27.4457 164.47 26.9177C163.622 26.3897 162.958 25.6697 162.478 24.7577C161.998 23.8457 161.758 22.8217 161.758 21.6857C161.758 20.5337 161.998 19.5017 162.478 18.5897C162.958 17.6777 163.622 16.9577 164.47 16.4297C165.318 15.9017 166.27 15.6377 167.326 15.6377C168.158 15.6377 168.902 15.8057 169.558 16.1417C170.214 16.4777 170.734 16.9497 171.118 17.5577C171.518 18.1497 171.734 18.8217 171.766 19.5737V23.7497C171.734 24.5177 171.518 25.1977 171.118 25.7897C170.734 26.3817 170.214 26.8537 169.558 27.2057C168.902 27.5417 168.158 27.7097 167.326 27.7097ZM167.902 24.8057C168.782 24.8057 169.494 24.5177 170.038 23.9417C170.582 23.3497 170.854 22.5897 170.854 21.6617C170.854 21.0537 170.726 20.5177 170.47 20.0537C170.23 19.5737 169.886 19.2057 169.438 18.9497C169.006 18.6777 168.494 18.5417 167.902 18.5417C167.326 18.5417 166.814 18.6777 166.366 18.9497C165.934 19.2057 165.59 19.5737 165.334 20.0537C165.094 20.5177 164.974 21.0537 164.974 21.6617C164.974 22.2857 165.094 22.8377 165.334 23.3177C165.59 23.7817 165.934 24.1497 166.366 24.4217C166.814 24.6777 167.326 24.8057 167.902 24.8057ZM170.686 27.4697V24.3497L171.19 21.5177L170.686 18.7337V15.8777H173.806V27.4697H170.686ZM176.587 27.4697V15.8777H179.731V27.4697H176.587ZM179.731 21.0617L178.507 20.2457C178.651 18.8217 179.067 17.7017 179.755 16.8857C180.443 16.0537 181.435 15.6377 182.731 15.6377C183.291 15.6377 183.795 15.7337 184.243 15.9257C184.691 16.1017 185.099 16.3977 185.467 16.8137L183.499 19.0697C183.323 18.8777 183.107 18.7337 182.851 18.6377C182.611 18.5417 182.331 18.4937 182.011 18.4937C181.339 18.4937 180.787 18.7097 180.355 19.1417C179.939 19.5577 179.731 20.1977 179.731 21.0617ZM190.103 27.5657L185.255 15.8777H188.663L191.879 24.8057H190.727L194.063 15.8777H197.495L192.335 27.5657H190.103ZM186.887 32.3177L190.415 24.8537L192.335 27.5657L190.223 32.3177H186.887Z" fill="black"/>
<path d="M199.607 27.7097C199.031 27.7097 198.559 27.5177 198.191 27.1337C197.823 26.7497 197.639 26.2777 197.639 25.7177C197.639 25.1577 197.823 24.6857 198.191 24.3017C198.559 23.9177 199.031 23.7257 199.607 23.7257C200.167 23.7257 200.631 23.9177 200.999 24.3017C201.367 24.6857 201.551 25.1577 201.551 25.7177C201.551 26.2777 201.367 26.7497 200.999 27.1337C200.631 27.5177 200.167 27.7097 199.607 27.7097Z" fill="#704FE6"/>
<defs>
<clipPath id="clip0_508_450">
<rect width="36" height="36" fill="white" transform="translate(0 0.469727)"/>
</clipPath>
</defs>
</svg>
