<svg width="206" height="44" viewBox="0 0 206 44" fill="none" xmlns="http://www.w3.org/2000/svg">
<path d="M32.8812 19.6107C32.3253 20.17 31.8997 20.8449 31.6345 21.5873C31.3693 22.3299 31.2712 23.1218 31.347 23.9066L31.3206 23.8802C31.3987 24.804 31.274 25.7336 30.9556 26.6044C30.6372 27.475 30.1326 28.2657 29.4772 28.9213C28.8216 29.5767 28.0309 30.0814 27.1601 30.3997C26.2895 30.7181 25.3598 30.8427 24.4361 30.7647L24.4625 30.7911C23.3575 30.6883 22.2477 30.9287 21.2842 31.4797C20.3209 32.0307 19.5509 32.8654 19.0794 33.8701C18.6079 34.8748 18.4575 36.0003 18.6491 37.0935C18.8408 38.1866 19.3648 39.1941 20.1499 39.9785C20.935 40.7628 21.9429 41.286 23.0362 41.4765C24.1296 41.6672 25.2549 41.5158 26.2592 41.0434C27.2634 40.5708 28.0973 39.8003 28.6475 38.8364C29.1976 37.8725 29.4371 36.7625 29.3333 35.6575L29.3612 35.6839C29.2831 34.7602 29.4077 33.8305 29.7261 32.9597C30.0445 32.0891 30.5492 31.2984 31.2046 30.6428C31.8602 29.9874 32.6509 29.4827 33.5215 29.1644C34.3923 28.846 35.3218 28.7214 36.2457 28.7994L36.2178 28.773C37.1204 28.8541 38.029 28.7061 38.8593 28.3427C39.6894 27.9792 40.4145 27.4121 40.9672 26.6938C41.5198 25.9756 41.8824 25.1293 42.0208 24.2338C42.1594 23.3381 42.0697 22.422 41.7599 21.5702C41.4502 20.7185 40.9304 19.9588 40.2488 19.3614C39.5673 18.764 38.7459 18.3484 37.8609 18.153C36.9759 17.9576 36.0559 17.9887 35.1862 18.2435C34.3164 18.4984 33.5252 18.9686 32.8856 19.6107H32.8812Z" fill="#A0A0A0"/>
<path d="M22.0616 27.3328L22.0337 27.3064C22.8189 27.3854 23.6117 27.2891 24.3552 27.0242C25.0985 26.7593 25.7737 26.3326 26.332 25.7749C26.89 25.2171 27.3174 24.5421 27.5827 23.799C27.8482 23.0558 27.9451 22.2631 27.8667 21.4778L27.8945 21.5042C27.8165 20.5804 27.9412 19.6508 28.2595 18.78C28.5779 17.9094 29.0825 17.1187 29.738 16.4631C30.3936 15.8077 31.1843 15.303 32.0549 14.9847C32.9257 14.6663 33.8552 14.5417 34.7791 14.6197L34.7512 14.5933C35.8563 14.6971 36.9665 14.4574 37.9304 13.907C38.8944 13.3567 39.665 12.5223 40.1373 11.5178C40.6095 10.5134 40.7604 9.38767 40.5695 8.29425C40.3785 7.20084 39.8549 6.19298 39.07 5.4081C38.2851 4.62325 37.2773 4.09959 36.1839 3.9086C35.0905 3.71759 33.9648 3.86853 32.9603 4.34083C31.9557 4.81311 31.1215 5.58377 30.5711 6.54768C30.0206 7.51157 29.781 8.62179 29.8848 9.7269L29.8584 9.69903C29.9366 10.6229 29.8122 11.5526 29.4939 12.4234C29.1757 13.2942 28.671 14.085 28.0155 14.7407C27.3599 15.3961 26.5691 15.9008 25.6984 16.2191C24.8275 16.5374 23.8977 16.6617 22.9739 16.5836L23.0003 16.6114C22.2152 16.5324 21.4221 16.6287 20.6788 16.8936C19.9355 17.1583 19.2603 17.5851 18.7021 18.1429C18.1439 18.7007 17.7166 19.3757 17.4511 20.1188C17.1858 20.862 17.0889 21.6547 17.1673 22.44L17.1409 22.4136C17.2187 23.3373 17.0939 24.2668 16.7755 25.1375C16.4569 26.0079 15.9524 26.7986 15.2969 27.4541C14.6414 28.1095 13.8508 28.614 12.9802 28.9326C12.1097 29.251 11.1801 29.3758 10.2564 29.2981L10.2828 29.3245C9.17771 29.2207 8.06749 29.4603 7.10358 30.0107C6.13969 30.5612 5.36903 31.3954 4.89675 32.4C4.42445 33.4045 4.2735 34.5301 4.4645 35.6235C4.65551 36.7169 5.17917 37.7248 5.96402 38.5096C6.7489 39.2946 7.75676 39.8182 8.85018 40.0092C9.94359 40.2001 11.0693 40.0492 12.0738 39.5769C13.0782 39.1047 13.9126 38.3341 14.463 37.3702C15.0134 36.4062 15.2531 35.296 15.1492 34.1909L15.1771 34.2173C15.0991 33.2934 15.2237 32.3639 15.5421 31.4931C15.8604 30.6225 16.3651 29.8318 17.0205 29.1762C17.6761 28.5208 18.4668 28.0161 19.3374 27.6978C20.2082 27.3794 21.1378 27.2547 22.0616 27.3328Z" fill="#A0A0A0"/>
<path d="M12.232 24.389C12.7879 23.83 13.2135 23.155 13.4784 22.4124C13.7434 21.6698 13.8411 20.8778 13.7647 20.0932L13.7925 20.1196C13.7145 19.1956 13.8391 18.2656 14.1577 17.3947C14.4762 16.5238 14.9811 15.7329 15.637 15.0773C16.2929 14.4218 17.0839 13.9172 17.9549 13.599C18.826 13.2808 19.756 13.1566 20.68 13.235L20.6521 13.2086C21.7568 13.3121 22.8666 13.0724 23.8301 12.522C24.7935 11.9717 25.5637 11.1375 26.0358 10.1334C26.5078 9.12922 26.6586 8.00392 26.4676 6.91091C26.2766 5.81791 25.753 4.81042 24.9685 4.02585C24.184 3.24127 23.1764 2.71778 22.0834 2.5268C20.9905 2.33579 19.8651 2.48659 18.861 2.9586C17.8568 3.4306 17.0227 4.20085 16.4724 5.1643C15.922 6.12776 15.6822 7.23752 15.7857 8.34225L15.7593 8.31585C15.8373 9.23963 15.7127 10.1693 15.3943 11.04C15.0759 11.9106 14.5713 12.7013 13.9158 13.3569C13.2603 14.0124 12.4696 14.517 11.5989 14.8353C10.7282 15.1537 9.79856 15.2784 8.87478 15.2004L8.90118 15.2268C7.99855 15.1458 7.09009 15.2941 6.25998 15.6577C5.42988 16.0213 4.70498 16.5886 4.15247 17.307C3.59996 18.0252 3.23772 18.8714 3.0993 19.767C2.96089 20.6627 3.05078 21.5788 3.36065 22.4303C3.67051 23.282 4.19034 24.0416 4.87194 24.6388C5.55355 25.2362 6.37488 25.6517 7.25984 25.8471C8.14478 26.0423 9.06472 26.011 9.93441 25.7563C10.8041 25.5014 11.5954 25.0312 12.2349 24.389H12.232Z" fill="#A0A0A0"/>
<path d="M57.6649 9.76074H62.0209V30.9585H57.6649V9.76074Z" fill="#A0A0A0"/>
<path d="M64.4879 23.7C64.4819 22.1767 64.928 20.6857 65.7699 19.4162C66.6118 18.1466 67.8115 17.1555 69.2171 16.5684C70.6228 15.9811 72.171 15.8243 73.6658 16.1178C75.1607 16.4113 76.5348 17.1417 77.6141 18.2167C78.6934 19.2917 79.4294 20.6628 79.7289 22.1565C80.0284 23.6502 79.8778 25.1991 79.2962 26.6071C78.7147 28.015 77.7284 29.2188 76.4622 30.0656C75.1959 30.9126 73.7069 31.3648 72.1835 31.3648C71.1724 31.3764 70.169 31.1862 69.2321 30.8054C68.2952 30.4247 67.4437 29.861 66.7272 29.1475C66.0106 28.4338 65.4436 27.5845 65.0591 26.6492C64.6746 25.7139 64.4804 24.7113 64.4879 23.7ZM75.5231 23.7C75.5049 23.0434 75.2935 22.4067 74.9156 21.8695C74.5375 21.3324 74.0095 20.9185 73.3976 20.6799C72.7855 20.4411 72.1169 20.388 71.4749 20.5273C70.833 20.6667 70.2463 20.992 69.7883 21.4629C69.3304 21.9337 69.0212 22.5292 68.8999 23.1748C68.7785 23.8203 68.8499 24.4873 69.1055 25.0925C69.3612 25.6976 69.7894 26.2139 70.3368 26.5769C70.8843 26.9399 71.5267 27.1335 72.1835 27.1335C72.6333 27.1455 73.0808 27.0641 73.4978 26.8946C73.9146 26.725 74.2918 26.471 74.6055 26.1485C74.9193 25.8258 75.1629 25.4417 75.3207 25.0203C75.4786 24.5989 75.5476 24.1494 75.5231 23.7Z" fill="#A0A0A0"/>
<path d="M97.24 16.4395V30.2262C97.24 35.1043 93.4354 37.1665 89.5737 37.1665C88.2141 37.2682 86.8526 36.9935 85.6386 36.3727C84.4248 35.7517 83.4054 34.8085 82.6921 33.6465L86.4086 31.4978C86.7084 32.1035 87.1861 32.6032 87.7776 32.9301C88.3693 33.2569 89.0466 33.3954 89.7189 33.3267C90.1486 33.3863 90.5863 33.3484 90.9995 33.216C91.4125 33.0835 91.7906 32.8599 92.1056 32.5617C92.4207 32.2634 92.6646 31.8982 92.8194 31.4928C92.9742 31.0876 93.0358 30.6527 92.9998 30.2203V28.893C92.4897 29.5171 91.8406 30.0129 91.1042 30.3407C90.3678 30.6685 89.5649 30.8192 88.7597 30.7806C86.844 30.7202 85.0269 29.9167 83.6931 28.5401C82.3593 27.1636 81.6135 25.3221 81.6135 23.4055C81.6135 21.4888 82.3593 19.6473 83.6931 18.2708C85.0269 16.8942 86.844 16.0908 88.7597 16.0303C89.5649 15.9918 90.3678 16.1424 91.1042 16.4702C91.8406 16.798 92.4897 17.2939 92.9998 17.9179V16.4366L97.24 16.4395ZM93.0013 23.4077C93.0306 22.7057 92.8491 22.011 92.4802 21.413C92.1113 20.8149 91.5719 20.341 90.9314 20.0522C90.2909 19.7633 89.5787 19.6728 88.8863 19.7922C88.1939 19.9116 87.5531 20.2354 87.0462 20.7222C86.5395 21.2088 86.19 21.836 86.0426 22.523C85.8953 23.21 85.9569 23.9254 86.2197 24.577C86.4824 25.2287 86.9342 25.7869 87.5167 26.1797C88.0993 26.5724 88.7861 26.7819 89.4886 26.781C89.9464 26.813 90.4056 26.7487 90.837 26.5924C91.2683 26.436 91.6621 26.191 91.993 25.8733C92.3239 25.5554 92.5846 25.1719 92.7583 24.7472C92.9319 24.3226 93.0148 23.8663 93.0013 23.4077Z" fill="#A0A0A0"/>
<path d="M99.7069 23.7C99.7009 22.1767 100.147 20.6857 100.989 19.4162C101.831 18.1466 103.03 17.1555 104.436 16.5684C105.842 15.9811 107.39 15.8243 108.885 16.1178C110.38 16.4113 111.754 17.1417 112.833 18.2167C113.912 19.2917 114.648 20.6628 114.948 22.1565C115.247 23.6502 115.097 25.1991 114.515 26.6071C113.934 28.015 112.947 29.2188 111.681 30.0656C110.415 30.9126 108.926 31.3648 107.402 31.3648C106.391 31.3764 105.388 31.1862 104.451 30.8054C103.514 30.4247 102.663 29.861 101.946 29.1475C101.23 28.4338 100.663 27.5845 100.278 26.6492C99.8936 25.7139 99.6994 24.7113 99.7069 23.7ZM110.742 23.7C110.724 23.0434 110.513 22.4067 110.135 21.8695C109.756 21.3324 109.228 20.9185 108.617 20.6799C108.005 20.4411 107.336 20.388 106.694 20.5273C106.052 20.6667 105.465 20.992 105.007 21.4629C104.549 21.9337 104.24 22.5292 104.119 23.1748C103.997 23.8203 104.069 24.4873 104.325 25.0925C104.58 25.6976 105.008 26.2139 105.556 26.5769C106.103 26.9399 106.746 27.1335 107.402 27.1335C107.852 27.1455 108.3 27.0641 108.717 26.8946C109.134 26.725 109.511 26.471 109.825 26.1485C110.138 25.8258 110.382 25.4417 110.54 25.0203C110.698 24.5989 110.767 24.1494 110.742 23.7Z" fill="#A0A0A0"/>
<path d="M117.13 12.5491C117.13 12.0322 117.283 11.5269 117.57 11.0971C117.857 10.6673 118.265 10.3323 118.743 10.1345C119.221 9.93668 119.746 9.88492 120.253 9.98577C120.76 10.0866 121.226 10.3355 121.591 10.7011C121.957 11.0666 122.206 11.5323 122.307 12.0393C122.407 12.5462 122.356 13.0718 122.158 13.5493C121.96 14.0269 121.625 14.4351 121.195 14.7223C120.765 15.0095 120.26 15.1628 119.743 15.1628C119.052 15.1559 118.391 14.8784 117.903 14.3896C117.414 13.901 117.136 13.2402 117.13 12.5491ZM117.57 16.4402H121.927V30.9602H117.564L117.57 16.4402Z" fill="#A0A0A0"/>
<path d="M140.735 23.6997C140.786 24.6594 140.646 25.6195 140.324 26.5248C140.002 27.4302 139.504 28.263 138.859 28.9753C138.214 29.6876 137.435 30.2654 136.566 30.6755C135.697 31.0854 134.755 31.3197 133.795 31.3645C132.988 31.4085 132.181 31.2724 131.433 30.9661C130.685 30.6595 130.014 30.1905 129.47 29.5928V36.7663H125.114V16.4397H129.47V17.8037C130.015 17.2065 130.685 16.7378 131.433 16.4317C132.181 16.1254 132.988 15.9895 133.795 16.0335C134.755 16.0782 135.697 16.3123 136.566 16.7224C137.436 17.1325 138.215 17.7103 138.86 18.4228C139.505 19.1353 140.003 19.9684 140.325 20.8741C140.647 21.7796 140.786 22.74 140.735 23.6997ZM136.379 23.6997C136.362 23.0202 136.145 22.3608 135.755 21.8039C135.365 21.2472 134.82 20.8177 134.187 20.5696C133.554 20.3213 132.862 20.2651 132.198 20.4082C131.533 20.5512 130.926 20.8871 130.451 21.3738C129.977 21.8605 129.656 22.4763 129.53 23.1443C129.404 23.8122 129.477 24.5024 129.741 25.1289C130.005 25.7553 130.448 26.2897 131.015 26.6656C131.581 27.0414 132.246 27.2419 132.925 27.2417C133.392 27.2626 133.858 27.1844 134.292 27.0125C134.727 26.8408 135.12 26.579 135.446 26.2446C135.772 25.91 136.024 25.5105 136.185 25.072C136.346 24.6334 136.412 24.1657 136.379 23.6997Z" fill="#A0A0A0"/>
<path d="M154.177 26.6023C154.177 29.9419 151.275 31.3645 148.139 31.3645C146.872 31.4792 145.6 31.2114 144.487 30.5953C143.374 29.9793 142.471 29.0435 141.896 27.9091L145.669 25.7604C145.822 26.2847 146.15 26.741 146.598 27.0527C147.047 27.3645 147.589 27.5131 148.133 27.4735C149.178 27.4735 149.701 27.1537 149.701 26.5744C149.701 24.9757 142.557 25.8191 142.557 20.7957C142.557 17.6292 145.229 16.0335 148.249 16.0335C149.384 15.9975 150.508 16.2668 151.504 16.8131C152.5 17.3596 153.331 18.1631 153.911 19.1399L150.194 21.1433C150.031 20.763 149.76 20.439 149.414 20.2118C149.068 19.9847 148.663 19.8644 148.249 19.8659C147.494 19.8659 147.029 20.1592 147.029 20.6784C147.035 22.3343 154.177 21.2299 154.177 26.6023Z" fill="#A0A0A0"/>
<path d="M170.089 16.4395V30.9595H165.733V29.594C165.23 30.1965 164.592 30.6713 163.871 30.9793C163.149 31.2873 162.366 31.4197 161.583 31.3657C158.649 31.3657 156.156 29.2757 156.156 25.3524V16.4395H160.512V24.7144C160.475 25.0602 160.515 25.4099 160.628 25.7389C160.739 26.068 160.923 26.3686 161.163 26.6199C161.404 26.8711 161.696 27.0669 162.02 27.1938C162.342 27.3207 162.69 27.3755 163.038 27.3544C164.635 27.3544 165.738 26.426 165.738 24.3639V16.4439L170.089 16.4395Z" fill="#A0A0A0"/>
<path d="M195.067 22.0439V30.9583H190.711V22.4208C190.711 20.9688 190.014 20.0404 188.621 20.0404C187.169 20.0404 186.355 21.0568 186.355 22.7699V30.9583H182V22.4208C182 20.9688 181.303 20.0404 179.909 20.0404C178.457 20.0404 177.644 21.0568 177.644 22.7699V30.9583H173.288V16.4383H177.644V17.7729C178.096 17.1808 178.688 16.7112 179.367 16.4072C180.048 16.103 180.793 15.9741 181.535 16.032C182.28 15.9955 183.022 16.1529 183.69 16.4886C184.356 16.8242 184.923 17.3269 185.338 17.9475C185.821 17.2982 186.46 16.7819 187.196 16.4469C187.933 16.1119 188.742 15.9692 189.549 16.032C192.883 16.0335 195.067 18.4139 195.067 22.0439Z" fill="#A0A0A0"/>
<path d="M198.751 16.3508C200.536 16.3508 201.984 14.9035 201.984 13.1183C201.984 11.333 200.536 9.88574 198.751 9.88574C196.966 9.88574 195.518 11.333 195.518 13.1183C195.518 14.9035 196.966 16.3508 198.751 16.3508Z" fill="#A0A0A0"/>
</svg>
