<svg width="147" height="44" viewBox="0 0 147 44" fill="none" xmlns="http://www.w3.org/2000/svg">
<path d="M26.3882 12.5287H28.5882V27.8407H35.1882V30.0407H26.3882V12.5287ZM42.0412 12.5287C43.3466 12.5287 44.6226 12.9158 45.7079 13.6411C46.7933 14.3663 47.6393 15.397 48.1388 16.603C48.6383 17.8091 48.769 19.1361 48.5144 20.4163C48.2597 21.6966 47.6312 22.8726 46.708 23.7956C45.785 24.7187 44.609 25.3473 43.3287 25.6019C42.0486 25.8566 40.7215 25.7259 39.5155 25.2264C38.3094 24.7268 37.2787 23.8809 36.5535 22.7955C35.8283 21.7101 35.4412 20.4341 35.4412 19.1287C35.4412 18.2621 35.6119 17.4037 35.9436 16.603C36.2752 15.8022 36.7614 15.0747 37.3743 14.4619C37.9871 13.849 38.7147 13.3628 39.5155 13.0311C40.3162 12.6995 41.1745 12.5287 42.0412 12.5287ZM42.0412 23.5287C42.9114 23.5287 43.7621 23.2707 44.4857 22.7872C45.2093 22.3037 45.7733 21.6165 46.1062 20.8125C46.4393 20.0085 46.5264 19.1239 46.3566 18.2703C46.1869 17.4168 45.7678 16.6328 45.1524 16.0175C44.5371 15.4022 43.7531 14.9831 42.8996 14.8133C42.046 14.6435 41.1614 14.7306 40.3574 15.0637C39.5534 15.3967 38.8661 15.9606 38.3827 16.6842C37.8992 17.4078 37.6412 18.2585 37.6412 19.1287C37.647 20.2919 38.1131 21.4054 38.9376 22.2258C39.7622 23.0462 40.878 23.5067 42.0412 23.5067V23.5287ZM37.6412 27.8627H46.4412V30.0627H37.6412V27.8627ZM65.8012 30.0627H63.6012V28.4897C62.1824 29.4828 60.493 30.0165 58.7612 30.0187C57.2844 30.0286 55.8289 29.6667 54.5288 28.9664C53.2286 28.2659 52.1257 27.2496 51.3216 26.011C50.5173 24.7724 50.0377 23.3513 49.9271 21.8786C49.8163 20.4061 50.078 18.9292 50.688 17.5843C51.2979 16.2394 52.2365 15.0695 53.4173 14.1827C54.5981 13.2958 55.9831 12.7203 57.4447 12.5093C58.9064 12.2982 60.3977 12.4585 61.781 12.9751C63.1645 13.4918 64.3957 14.3483 65.3612 15.4657L63.7442 16.9067C63.0098 16.0857 62.0817 15.4616 61.0443 15.0912C60.007 14.7207 58.8935 14.6158 57.8053 14.7859C56.7169 14.9561 55.6887 15.396 54.8138 16.0654C53.9391 16.7348 53.2458 17.6124 52.7972 18.6185C52.3485 19.6244 52.1588 20.7266 52.2452 21.8247C52.3317 22.9229 52.6915 23.9818 53.2921 24.9052C53.8927 25.8285 54.7147 26.587 55.6835 27.1112C56.6521 27.6355 57.7368 27.9089 58.8382 27.9067C59.7523 27.9086 60.656 27.713 61.4876 27.3333C62.3191 26.9536 63.0589 26.3988 63.6562 25.7067H57.7162V23.5067H65.8232L65.8012 30.0627ZM73.8972 12.5727C75.2025 12.5727 76.4786 12.9598 77.5639 13.6851C78.6493 14.4103 79.4953 15.441 79.9948 16.647C80.4943 17.8531 80.625 19.1801 80.3704 20.4603C80.1157 21.7406 79.4872 22.9166 78.564 23.8396C77.641 24.7627 76.465 25.3913 75.1847 25.6459C73.9045 25.9006 72.5775 25.7699 71.3715 25.2704C70.1654 24.7708 69.1347 23.9249 68.4095 22.8395C67.6843 21.7541 67.2972 20.4781 67.2972 19.1727C67.2913 18.3004 67.4585 17.4357 67.789 16.6284C68.1194 15.8212 68.6066 15.0873 69.2224 14.4696C69.8382 13.8517 70.5703 13.3621 71.3765 13.0289C72.1827 12.6958 73.0469 12.5258 73.9192 12.5287L73.8972 12.5727ZM73.8972 23.5727C74.7674 23.5727 75.6181 23.3147 76.3417 22.8312C77.0653 22.3477 77.6293 21.6605 77.9622 20.8565C78.2953 20.0525 78.3824 19.1679 78.2126 18.3143C78.0429 17.4608 77.6238 16.6768 77.0084 16.0615C76.3931 15.4462 75.6091 15.0271 74.7556 14.8573C73.902 14.6875 73.0174 14.7746 72.2134 15.1077C71.4094 15.4407 70.7221 16.0046 70.2387 16.7282C69.7552 17.4518 69.4972 18.3025 69.4972 19.1727C69.5146 20.332 69.9888 21.4376 70.8169 22.2492C71.6448 23.0607 72.7598 23.5127 73.9192 23.5067L73.8972 23.5727ZM69.4972 27.9067H78.2972V30.1067H69.4972V27.9067ZM82.8402 12.5287H85.0402V30.0187H82.8402V12.5287ZM88.0872 12.5287H90.2872C90.4005 12.5168 90.5148 12.5168 90.6282 12.5287C91.5495 12.4288 92.4817 12.524 93.3638 12.8081C94.2459 13.0924 95.0583 13.5591 95.748 14.1781C96.4378 14.7971 96.9895 15.5544 97.3671 16.4007C97.7449 17.2471 97.94 18.1635 97.94 19.0902C97.94 20.017 97.7449 20.9334 97.3671 21.7797C96.9895 22.6261 96.4378 23.3834 95.748 24.0024C95.0583 24.6214 94.2459 25.0881 93.3638 25.3723C92.4817 25.6565 91.5495 25.7517 90.6282 25.6517H90.2872V30.0517H88.0872V12.5287ZM90.2872 14.7287V23.4297H90.6282C91.2496 23.5125 91.8814 23.4615 92.4816 23.2801C93.0816 23.0989 93.636 22.7914 94.1076 22.3785C94.5793 21.9655 94.9571 21.4566 95.2161 20.8857C95.475 20.3148 95.609 19.6951 95.609 19.0682C95.609 18.4414 95.475 17.8217 95.2161 17.2508C94.9571 16.6799 94.5793 16.171 94.1076 15.758C93.636 15.345 93.0816 15.0376 92.4816 14.8562C91.8814 14.675 91.2496 14.624 90.6282 14.7067C90.5084 14.7192 90.3902 14.745 90.2762 14.7837L90.2872 14.7287ZM106.138 13.7937L104.51 15.0807C104.229 14.7873 103.871 14.58 103.476 14.4834C103.081 14.3869 102.667 14.4049 102.283 14.5355C101.898 14.6659 101.559 14.9035 101.304 15.2203C101.05 15.5371 100.891 15.9199 100.847 16.3237V16.4997C100.847 17.4677 101.518 18.1167 102.827 18.2047C107.865 18.5127 110.175 20.8777 110.175 24.0017V24.1997C110.045 25.4361 109.563 26.6092 108.785 27.5794C108.008 28.5496 106.968 29.2759 105.789 29.6722C104.611 30.0685 103.344 30.118 102.138 29.8147C100.932 29.5115 99.8389 28.8684 98.9882 27.9617L100.671 26.6637C101.063 27.0836 101.541 27.4132 102.073 27.6298C102.605 27.8462 103.178 27.9446 103.751 27.9177C104.811 27.9736 105.851 27.618 106.654 26.9251C107.458 26.2323 107.963 25.2559 108.063 24.1997V24.0457C108.063 21.1087 105.181 20.5697 102.684 20.3277C100.374 20.1077 98.7132 18.6667 98.7132 16.5877V16.4997C98.7946 15.4173 99.2886 14.4075 100.093 13.6789C100.897 12.9502 101.951 12.5581 103.036 12.5837C103.611 12.5668 104.183 12.6705 104.716 12.8884C105.248 13.1064 105.729 13.4335 106.127 13.8487L106.138 13.7937ZM118.788 27.7857C121.527 27.7857 123.694 24.8267 123.694 21.1857V12.3857H125.894V21.1857C125.894 26.0257 122.726 29.9307 118.832 29.9307C114.938 29.9307 111.77 26.0257 111.77 21.1857V12.3857H113.97V21.1857C113.882 24.8817 116.049 27.8407 118.777 27.8407L118.788 27.7857ZM142.779 29.9857H140.579V19.0957L135.508 25.6957L130.437 19.0957V30.0187H128.237V12.5287L135.497 22.0877L142.757 12.5287L142.779 29.9857Z" fill="#A0A0A0"/>
<path d="M15.8281 9.90002C15.8281 8.31296 15.1977 6.7909 14.0755 5.66869C12.9533 4.54647 11.4312 3.91602 9.84411 3.91602C8.25705 3.91602 6.735 4.54647 5.61278 5.66869C4.49056 6.7909 3.86011 8.31296 3.86011 9.90002V27.995L8.78811 31.526V40.128H10.9001V31.526L15.8281 27.995V9.90002ZM13.7161 20.02L10.9001 22.836V20.196L13.7161 17.38V20.02ZM6.01611 17.38L8.83211 20.196V22.836L6.01611 20.02V17.38ZM13.7161 14.388L9.84411 18.26L5.97211 14.3V11.66L9.84411 15.532L13.7161 11.66V14.388ZM9.84411 6.02802C10.6957 6.03178 11.5225 6.3146 12.198 6.83314C12.8735 7.35168 13.3604 8.07735 13.5841 8.89902L9.84411 12.628L6.10411 8.89902C6.31964 8.06918 6.80301 7.33366 7.47925 6.80661C8.15549 6.27954 8.98676 5.99038 9.84411 5.984V6.02802ZM5.97211 26.928V22.968L8.78811 25.784V28.93L5.97211 26.928ZM10.9001 28.941V25.784L13.7161 22.968V26.917L10.9001 28.941Z" fill="#A0A0A0"/>
</svg>
