<svg width="116" height="44" viewBox="0 0 116 44" fill="none" xmlns="http://www.w3.org/2000/svg">
<path d="M53.4497 38.7615H56.4575V27.4158H53.4497V38.7615ZM53.4497 25.6464H56.4575V22.9482H53.4497V25.6464Z" fill="#A0A0A0"/>
<path d="M58.3955 42.4774H61.4033V37.4791H61.4477C62.089 38.4522 63.1285 39.0936 64.7208 39.0936C67.6402 39.0936 69.6307 36.7714 69.6307 33.1C69.6307 29.5613 67.7066 27.1064 64.6987 27.1064C63.1506 27.1064 62.089 27.8363 61.3591 28.8315H61.2928V27.4161H58.3955V42.4774ZM64.0795 36.5944C62.2881 36.5944 61.337 35.2453 61.337 33.1885C61.337 31.1538 62.089 29.5392 63.9689 29.5392C65.8267 29.5392 66.5786 31.0431 66.5786 33.1885C66.5786 35.3338 65.6056 36.5944 64.0795 36.5944Z" fill="#A0A0A0"/>
<path d="M75.6308 39.0936C78.4616 39.0936 80.4079 37.7223 80.4079 35.4443C80.4079 32.7904 78.3069 32.2596 76.4049 31.8615C74.7903 31.5298 73.2864 31.4412 73.2864 30.4682C73.2864 29.6499 74.0604 29.2074 75.2327 29.2074C76.5154 29.2074 77.2895 29.6499 77.4222 30.8662H80.1426C79.9214 28.5883 78.2627 27.1064 75.2769 27.1064C72.6893 27.1064 70.6545 28.2786 70.6545 30.7335C70.6545 33.2106 72.6451 33.7635 74.6797 34.1616C76.2279 34.4712 77.6655 34.5818 77.6655 35.6655C77.6655 36.4617 76.9135 36.9704 75.5865 36.9704C74.2374 36.9704 73.3085 36.3954 73.1095 35.0905H70.3228C70.4997 37.5012 72.3354 39.0936 75.6308 39.0936Z" fill="#A0A0A0"/>
<path d="M91.8277 38.7617V27.416H88.8199V33.9624C88.8199 35.4664 87.9574 36.528 86.5419 36.528C85.2592 36.528 84.662 35.7981 84.662 34.4711V27.416H81.6763V34.9798C81.6763 37.4568 83.0918 39.0714 85.6131 39.0714C87.2054 39.0714 88.09 38.4742 88.8642 37.4347H88.9306V38.7617H91.8277Z" fill="#A0A0A0"/>
<path d="M93.7732 38.7618H96.7811V32.1711C96.7811 30.6671 97.5994 29.6941 98.8158 29.6941C99.9216 29.6941 100.563 30.3575 100.563 31.6403V38.7618H103.571V32.1711C103.571 30.6671 104.345 29.6941 105.606 29.6941C106.711 29.6941 107.353 30.3575 107.353 31.6403V38.7618H110.361V31.1317C110.361 28.6546 109.011 27.1064 106.623 27.1064C105.185 27.1064 103.991 27.8584 103.217 29.0969H103.173C102.62 27.9026 101.47 27.1064 100.032 27.1064C98.4619 27.1064 97.3561 27.9026 96.7368 28.9421H96.6705V27.4161H93.7732V38.7618Z" fill="#A0A0A0"/>
<path d="M53.4939 19.3289H56.5017V3.51562H53.4939V19.3289Z" fill="#A0A0A0"/>
<path d="M63.8562 19.661C67.3728 19.661 69.7834 17.0512 69.7834 13.6674C69.7834 10.2836 67.3728 7.67383 63.8562 7.67383C60.3397 7.67383 57.929 10.2836 57.929 13.6674C57.929 17.0512 60.3397 19.661 63.8562 19.661ZM63.8562 17.3609C61.9984 17.3609 60.9811 15.879 60.9811 13.6674C60.9811 11.4557 61.9984 9.95183 63.8562 9.95183C65.6919 9.95183 66.7314 11.4557 66.7314 13.6674C66.7314 15.879 65.6919 17.3609 63.8562 17.3609Z" fill="#A0A0A0"/>
<path d="M76.1799 23.1997C77.8608 23.1997 79.3205 22.8016 80.2715 21.9168C81.1119 21.1428 81.6206 20.059 81.6206 18.4667V7.98346H78.7233V9.17775H78.6791C77.9935 8.22673 76.954 7.67383 75.5385 7.67383C72.6634 7.67383 70.6287 9.84125 70.6287 13.2251C70.6287 16.6531 73.1058 18.6436 75.6271 18.6436C77.0647 18.6436 77.9272 18.0686 78.5907 17.3166H78.657V18.5551C78.657 20.1033 77.8387 20.9216 76.1357 20.9216C74.7423 20.9216 74.101 20.3687 73.8577 19.661H70.872C71.1816 21.8726 73.0836 23.1997 76.1799 23.1997ZM76.1357 16.2329C74.5876 16.2329 73.5702 15.105 73.5702 13.1809C73.5702 11.2788 74.5876 10.0845 76.1136 10.0845C77.9272 10.0845 78.8118 11.4999 78.8118 13.1587C78.8118 14.8395 78.0377 16.2329 76.1357 16.2329Z" fill="#A0A0A0"/>
<path d="M88.9316 19.661C92.4481 19.661 94.8589 17.0512 94.8589 13.6674C94.8589 10.2836 92.4481 7.67383 88.9316 7.67383C85.4152 7.67383 83.0044 10.2836 83.0044 13.6674C83.0044 17.0512 85.4152 19.661 88.9316 19.661ZM88.9316 17.3609C87.0739 17.3609 86.0565 15.879 86.0565 13.6674C86.0565 11.4557 87.0739 9.95183 88.9316 9.95183C90.7673 9.95183 91.8068 11.4557 91.8068 13.6674C91.8068 15.879 90.7673 17.3609 88.9316 17.3609Z" fill="#A0A0A0"/>
<path d="M97.4956 14.9949H110.5V12.4072H97.4956V14.9949Z" fill="#A0A0A0"/>
<path d="M111.454 25.489C111.454 24.98 111.866 24.5674 112.375 24.5674H114.218C114.727 24.5674 115.14 24.98 115.14 25.489C115.14 25.9978 114.727 26.4104 114.218 26.4104H112.375C111.866 26.4104 111.454 25.9978 111.454 25.489Z" fill="#A0A0A0"/>
<path fill-rule="evenodd" clip-rule="evenodd" d="M23.0737 0C35.224 0 45.0737 9.84973 45.0737 22C45.0737 34.1503 35.224 44 23.0737 44C10.9235 44 1.07373 34.1503 1.07373 22C1.07373 9.84973 10.9235 0 23.0737 0ZM22.2785 1.64625C19.7688 1.99946 17.3789 4.01619 15.5238 7.38914C14.9856 8.36751 14.5001 9.44841 14.0769 10.6155C16.5995 9.98159 19.3705 9.60786 22.2785 9.55006V1.64625ZM12.2176 11.1439C12.7437 9.49254 13.3875 7.97324 14.1303 6.62271C15.0499 4.95065 16.1413 3.50675 17.371 2.39775C10.6842 4.33975 5.41348 9.61047 3.47148 16.2973C4.58047 15.0676 6.02438 13.9762 7.69645 13.0566C9.04698 12.3137 10.5663 11.67 12.2176 11.1439ZM11.6892 13.0032C11.0553 15.5257 10.6816 18.2967 10.6238 21.2048H2.71997C3.07319 18.6949 5.08992 16.3051 8.46287 14.45C9.44125 13.9119 10.5221 13.4264 11.6892 13.0032ZM12.2145 21.2048C12.2802 18.0312 12.737 15.0517 13.4929 12.4192C16.1255 11.6633 19.105 11.2064 22.2785 11.1407V14.5759C21.0946 17.6068 18.6799 20.0213 15.6488 21.2048H12.2145ZM10.6238 22.7952H2.71997C3.07319 25.3051 5.08992 27.6948 8.46287 29.55C9.44125 30.0881 10.5221 30.5736 11.6892 30.9968C11.0553 28.4743 10.6816 25.7033 10.6238 22.7952ZM13.4929 31.5808C12.737 28.9483 12.2802 25.9688 12.2145 22.7952H15.6488C18.6799 23.9787 21.0947 26.3932 22.2785 29.4241V32.8593C19.105 32.7936 16.1255 32.3367 13.4929 31.5808ZM12.2176 32.8561C10.5663 32.33 9.04698 31.6863 7.69645 30.9434C6.02438 30.0238 4.58047 28.9324 3.47148 27.7027C5.41348 34.3895 10.6842 39.6603 17.371 41.6022C16.1413 40.4932 15.0499 39.0493 14.1303 37.3772C13.3875 36.0268 12.7437 34.5074 12.2176 32.8561ZM22.2785 42.3537C19.7688 42.0005 17.3789 39.9838 15.5238 36.6109C14.9856 35.6325 14.5001 34.5516 14.0769 33.3846C16.5995 34.0184 19.3705 34.3922 22.2785 34.4499V42.3537ZM28.7765 41.6022C30.0061 40.4932 31.0976 39.0493 32.0173 37.3772C32.76 36.0268 33.4037 34.5074 33.9298 32.8561C35.5812 32.33 37.1005 31.6863 38.4511 30.9434C40.1231 30.0238 41.567 28.9324 42.6759 27.7027C40.734 34.3895 35.4632 39.6603 28.7765 41.6022ZM32.0705 33.3846C31.6473 34.5516 31.1618 35.6325 30.6237 36.6109C28.7686 39.9838 26.3788 42.0005 23.8689 42.3537V34.4499C26.777 34.3922 29.548 34.0184 32.0705 33.3846ZM34.4583 30.9968C35.6253 30.5736 36.7062 30.0881 37.6846 29.55C41.0575 27.6948 43.0743 25.3051 43.4275 22.7952H35.5236C35.4659 25.7033 35.0921 28.4743 34.4583 30.9968ZM33.933 22.7952C33.8674 25.9688 33.4104 28.9483 32.6545 31.5808C30.022 32.3367 27.0425 32.7936 23.8689 32.8593V29.4266C25.0524 26.3946 27.4677 23.979 30.4996 22.7952H33.933ZM35.5236 21.2048H43.4275C43.0743 18.6949 41.0575 16.3051 37.6846 14.45C36.7062 13.9119 35.6253 13.4264 34.4583 13.0032C35.0921 15.5257 35.4659 18.2967 35.5236 21.2048ZM32.6545 12.4192C33.4104 15.0517 33.8674 18.0312 33.933 21.2048H30.4996C27.4677 20.021 25.0524 17.6054 23.8689 14.5733V11.1407C27.0425 11.2064 30.022 11.6633 32.6545 12.4192ZM33.9298 11.1439C35.5812 11.67 37.1005 12.3137 38.4511 13.0566C40.1231 13.9762 41.567 15.0676 42.6759 16.2973C40.734 9.61047 35.4632 4.33975 28.7765 2.39775C30.0061 3.50675 31.0976 4.95065 32.0173 6.62271C32.76 7.97324 33.4037 9.49254 33.9298 11.1439ZM23.8689 1.64625C26.3788 1.99946 28.7686 4.01619 30.6237 7.38914C31.1618 8.36752 31.6473 9.44841 32.0705 10.6155C29.548 9.98159 26.777 9.60786 23.8689 9.55006V1.64625Z" fill="#A0A0A0"/>
</svg>
