<svg width="198" height="44" viewBox="0 0 198 44" fill="none" xmlns="http://www.w3.org/2000/svg">
<g clip-path="url(#clip0_623_323)">
<path d="M57.4374 22.8823C57.4764 22.1306 57.4764 21.3775 57.4374 20.6258H14.6231C14.6141 20.8131 14.6062 21.0015 14.6017 21.1899H5.63245L5.62794 21.472H0.798096V22.0361H5.62681L5.63358 22.3182H14.6017C14.6062 22.5077 14.613 22.695 14.6242 22.8823H26.916C26.8694 22.508 26.846 22.1312 26.8461 21.754H44.8974C44.8974 22.1365 44.8748 22.5133 44.8274 22.8823H57.4374ZM57.3482 19.4976H44.6142C44.5152 19.1138 44.3908 18.7369 44.2419 18.3694H27.505C27.3572 18.735 27.2319 19.1107 27.1327 19.4976H14.7111C14.7314 19.3092 14.754 19.1208 14.7788 18.9335H5.80958L5.84794 18.6583H0.798096V18.0942H5.93707L5.98897 17.8053H14.9582C14.992 17.6169 15.0304 17.4285 15.071 17.2412H56.9906C57.1486 17.9802 57.2693 18.7327 57.3482 19.4976ZM56.7164 16.113H42.9185C42.5931 15.7069 42.2334 15.3294 41.8433 14.9848H29.9024C29.5132 15.33 29.1521 15.7069 28.8272 16.113H15.3452C15.3959 15.9246 15.4501 15.7362 15.5065 15.5489H6.53727L6.63656 15.2319H0.798096V14.6667H6.82497L6.91297 14.4196H15.8822C15.9499 14.2301 16.0221 14.0428 16.0966 13.8555H55.9639C56.255 14.5888 56.5066 15.3436 56.7164 16.113ZM55.4788 12.7284H16.5817C16.6697 12.5389 16.7599 12.3516 16.8536 12.1643H7.88548L8.04456 11.8529H0.798096V11.2888H8.3503L8.49358 11.0361H17.4628C17.5722 10.8466 17.6851 10.6582 17.8001 10.472H54.2603C54.7094 11.1963 55.1178 11.9499 55.4788 12.7284ZM14.7111 24.0105H57.3494C57.2693 24.7754 57.1486 25.529 56.9906 26.2669H43.6913C43.9 25.9058 44.0851 25.529 44.243 25.1387H27.5027C27.6607 25.529 27.8446 25.9058 28.0533 26.2669H15.0699C15.0297 26.0794 14.9921 25.8913 14.9571 25.7028H5.98897C5.97059 25.6036 5.95292 25.5043 5.93594 25.4049H0.798096V24.8408H5.84681C5.83386 24.7521 5.82145 24.6634 5.80958 24.5746H14.7788C14.7538 24.3868 14.7312 24.1988 14.7111 24.0105ZM15.344 27.3951H56.7153C56.5066 28.1656 56.255 28.9182 55.9639 29.6515H40.2458C40.8175 29.3342 41.3531 28.9559 41.8433 28.5233H29.9024C30.3926 28.9559 30.9283 29.3342 31.4999 29.6515H16.0966C16.0225 29.4645 15.951 29.2764 15.8822 29.0874H6.91297L6.81594 28.8155H0.798096V28.2514H6.62866C6.59789 28.1542 6.5678 28.0568 6.5384 27.9592H15.5065C15.4501 27.7719 15.3959 27.5846 15.344 27.3951ZM16.5817 30.7797H55.4788C55.1181 31.5555 54.7112 32.309 54.2603 33.0361H17.8001C17.6844 32.8498 17.5716 32.6618 17.4617 32.472H8.49358C8.43717 32.375 8.38189 32.2779 8.32774 32.1798H0.798096V31.6157H8.02425L7.88548 31.3449H16.8547C16.761 31.1582 16.6699 30.9702 16.5817 30.7808V30.7797ZM19.8873 35.8566C20.0532 36.0484 20.2235 36.2357 20.3973 36.4207H51.6632C52.3291 35.7112 52.9461 34.9573 53.5101 34.1643H18.5504C18.6858 34.355 18.8234 34.5434 18.9656 34.7284H9.99635L10.2197 35.0161H0.798096V35.5802H10.6812C10.759 35.6738 10.838 35.7652 10.9181 35.8566H19.8873ZM23.6296 39.2412C23.9037 39.4364 24.1824 39.6248 24.4645 39.8053H47.596C48.6344 39.1385 49.6136 38.3836 50.5226 37.5489H21.539C21.7477 37.7407 21.961 37.9291 22.1776 38.113H13.2084C13.3302 38.2168 13.4532 38.3184 13.5773 38.4176H0.798096V38.9817H14.305C14.4223 39.0697 14.5419 39.1566 14.6615 39.2412H23.6307H23.6296ZM31.5462 42.7206C32.9926 43.0286 34.4919 43.1899 36.0297 43.1899C39.4752 43.1899 42.7301 42.3776 45.6138 40.9335H26.4456C26.8472 41.1344 27.2545 41.3228 27.6686 41.4976H18.6993C18.8595 41.5653 19.0209 41.6319 19.1822 41.6962H0.798096V42.2603H20.7955C22.7778 42.865 24.8819 43.1899 27.0616 43.1899C28.5993 43.1899 30.0998 43.0286 31.5462 42.7206ZM18.5504 9.34379H53.5101C52.9462 8.5508 52.3291 7.79693 51.6632 7.08738H20.3973C20.2235 7.27241 20.0532 7.45969 19.8862 7.65149H10.9181L10.7195 7.8839H0.798096V8.448H10.2547C10.1678 8.55744 10.0821 8.668 9.99748 8.77969H18.9656C18.8234 8.96585 18.6858 9.15426 18.5504 9.34379ZM21.5379 5.95918H50.5215C49.6128 5.12459 48.6341 4.36967 47.596 3.70277H24.4645C24.1824 3.88441 23.9037 4.07282 23.6296 4.26687H14.6615C14.5374 4.356 14.4133 4.44513 14.2914 4.53651H0.798096V5.10062H13.5649C13.4453 5.19764 13.3268 5.29579 13.2095 5.39508H22.1776C21.961 5.57897 21.7477 5.76738 21.5379 5.95918ZM26.4467 2.57456H45.6149C42.6397 1.08582 39.3577 0.313133 36.0308 0.318154C34.4919 0.318154 32.9926 0.480615 31.5462 0.788615C30.0719 0.475201 28.5688 0.317515 27.0616 0.318154C24.654 0.318154 22.34 0.715282 20.1795 1.44636H0.798096V2.01046H27.6686C27.2554 2.18559 26.8479 2.37371 26.4467 2.57456ZM126.309 0C127.05 0 127.632 0.185026 128.055 0.555077C128.496 0.908205 128.716 1.40123 128.716 2.03754C128.716 2.67272 128.496 3.17477 128.055 3.54482C127.632 3.89795 127.05 4.07508 126.309 4.07508C125.569 4.07508 124.977 3.89795 124.536 3.54482C124.113 3.17477 123.901 2.67272 123.901 2.03754C123.901 1.40236 124.113 0.909333 124.536 0.555077C124.977 0.185026 125.569 0 126.309 0ZM128.372 6.53456V18.0434C128.372 18.7846 128.496 19.2878 128.743 19.5518C129.007 19.8169 129.448 19.9489 130.066 19.9489V20.504C129.572 20.4799 129.078 20.4622 128.584 20.451C127.906 20.4155 127.226 20.3978 126.547 20.3979C125.86 20.3979 125.162 20.416 124.457 20.451C123.928 20.4626 123.399 20.4803 122.87 20.504V19.9489C123.487 19.9489 123.919 19.8169 124.166 19.5518C124.43 19.2878 124.563 18.7846 124.563 18.0434V9.70933C124.563 8.9162 124.439 8.33292 124.192 7.964C123.963 7.5759 123.522 7.38185 122.87 7.38185V6.82564C123.434 6.87867 123.981 6.90461 124.51 6.90461C125.25 6.90461 125.939 6.87867 126.574 6.82564C127.226 6.75569 127.826 6.65867 128.372 6.53456Z" fill="#A0A0A0"/>
<path fill-rule="evenodd" clip-rule="evenodd" d="M135.818 8.96235V6.53445C135.272 6.65855 134.672 6.75558 134.02 6.82553C133.367 6.87855 132.679 6.9045 131.955 6.9045C131.426 6.9045 130.88 6.87855 130.315 6.82553V7.38173C130.95 7.38173 131.391 7.57578 131.638 7.96389C131.885 8.33394 132.008 8.91609 132.008 9.70922V22.9386C132.008 23.6437 131.885 24.1198 131.638 24.3669C131.409 24.6139 131.003 24.7369 130.421 24.7369V25.2931L131.823 25.2141C132.467 25.1962 133.111 25.1872 133.755 25.1871C134.654 25.1871 135.501 25.1961 136.294 25.213C137.106 25.2491 137.741 25.2751 138.2 25.292V24.7369C137.459 24.7369 136.877 24.5959 136.453 24.3138C136.03 24.0498 135.818 23.5027 135.818 22.6734V20.0221C136.051 20.2162 136.324 20.3764 136.639 20.5039C137.203 20.7521 137.829 20.8751 138.517 20.8751C139.452 20.8751 140.289 20.707 141.031 20.3719C141.784 20.0405 142.447 19.5324 142.962 18.8906C143.508 18.2204 143.923 17.4002 144.205 16.4299C144.506 15.4597 144.656 14.3315 144.656 13.0431C144.656 11.5798 144.443 10.3625 144.02 9.39219C143.597 8.40389 143.032 7.67281 142.327 7.19671C141.622 6.70282 140.78 6.44347 139.919 6.45548C138.896 6.45548 137.997 6.71948 137.221 7.24861C136.61 7.6604 136.143 8.23127 135.818 8.96348V8.96235ZM135.818 9.87168V19.4626C135.965 19.6363 136.142 19.7807 136.347 19.8958C136.683 20.0718 137.062 20.1598 137.486 20.1598C138.279 20.1598 138.905 19.8958 139.364 19.3667C139.822 18.8195 140.148 18.0613 140.342 17.0911C140.555 16.1039 140.661 14.9306 140.661 13.5722C140.661 12.0559 140.564 10.8645 140.369 10.0003C140.175 9.13609 139.91 8.51896 139.575 8.14891C139.24 7.77773 138.835 7.59271 138.358 7.59271C137.724 7.59271 137.142 7.84091 136.613 8.33394C136.214 8.71753 135.949 9.23086 135.818 9.87168Z" fill="#A0A0A0"/>
<path d="M150.73 6.45533C151.471 6.45533 152.114 6.55236 152.661 6.74641C153.225 6.92241 153.632 7.09954 153.879 7.27554C154.478 7.68169 154.849 7.41656 154.99 6.48128H155.545C155.51 6.97544 155.483 7.58467 155.466 8.30672C155.448 9.01297 155.439 9.95615 155.439 11.1385H154.884C154.793 10.477 154.624 9.82861 154.381 9.20703C154.156 8.60378 153.783 8.06679 153.297 7.64559C152.837 7.23944 152.238 7.03636 151.497 7.03636C150.986 7.03636 150.554 7.18754 150.201 7.48764C149.848 7.76969 149.672 8.18374 149.672 8.73092C149.672 9.26005 149.831 9.72713 150.148 10.1333C150.466 10.5214 150.871 10.9005 151.365 11.2705C151.876 11.6236 152.405 12.0027 152.952 12.4077C153.535 12.8489 154.064 13.29 154.54 13.7311C154.996 14.1301 155.381 14.6045 155.677 15.1335C155.96 15.6446 156.101 16.2527 156.101 16.9589C156.101 17.7521 155.871 18.4482 155.413 19.0484C154.954 19.6305 154.346 20.0807 153.588 20.3977C152.846 20.7158 152.017 20.8749 151.101 20.8749C150.62 20.8804 150.14 20.827 149.672 20.7158C149.305 20.6245 148.95 20.4912 148.613 20.3187C148.384 20.2127 148.163 20.1156 147.952 20.0276C147.772 19.9286 147.586 19.8405 147.396 19.7636C147.22 19.7106 147.061 19.7715 146.92 19.9487C146.797 20.1247 146.7 20.3717 146.629 20.6888H146.074C146.109 20.1247 146.136 19.4365 146.153 18.6253C146.171 17.8141 146.18 16.7378 146.18 15.3986H146.735C146.841 16.3508 147.035 17.197 147.317 17.9371C147.599 18.6614 147.978 19.2345 148.454 19.6576C148.948 20.0637 149.566 20.2668 150.307 20.2668C150.607 20.2668 150.898 20.2048 151.18 20.0807C151.462 19.9566 151.691 19.7535 151.868 19.4714C152.062 19.1894 152.159 18.8284 152.159 18.3884C152.159 17.611 151.903 16.9668 151.391 16.4557C150.898 15.9447 150.263 15.3885 149.487 14.7894C148.922 14.3302 148.384 13.8812 147.873 13.4401C147.399 13.0064 146.989 12.5077 146.656 11.9587C146.334 11.3952 146.169 10.7553 146.18 10.1062C146.18 9.31308 146.391 8.64292 146.814 8.09574C147.246 7.54286 147.823 7.12131 148.481 6.87841C149.197 6.5944 149.96 6.45077 150.73 6.45533ZM183.573 6.74641C183.114 6.55236 182.515 6.45533 181.774 6.45533C180.944 6.44691 180.125 6.64709 179.393 7.03749C178.67 7.40754 178.097 8.03369 177.672 8.91595V6.53544C177.126 6.65841 176.526 6.75544 175.874 6.82538C175.239 6.87841 174.551 6.90436 173.811 6.90436C173.282 6.90436 172.734 6.87841 172.17 6.82538V7.38159C172.822 7.38159 173.263 7.57564 173.493 7.96374C173.74 8.3338 173.863 8.91595 173.863 9.70908V18.0431C173.863 18.7844 173.731 19.2875 173.467 19.5515C173.219 19.8167 172.787 19.9487 172.17 19.9487V20.5037C172.699 20.4801 173.228 20.4624 173.758 20.4507C174.445 20.4159 175.133 20.3982 175.821 20.3977C176.438 20.3977 177.038 20.4157 177.619 20.4507C178.22 20.4688 178.661 20.4868 178.943 20.5037V19.9487C178.485 19.9487 178.158 19.8167 177.964 19.5515C177.77 19.2875 177.672 18.7844 177.672 18.0431V10.6884C177.672 10.1062 177.788 9.5861 178.017 9.12692C178.264 8.65082 178.581 8.28077 178.969 8.01677C179.341 7.75707 179.785 7.61841 180.239 7.61964C180.645 7.61964 180.944 7.71667 181.138 7.91072C181.35 8.08672 181.491 8.34282 181.563 8.6779C181.633 8.99492 181.667 9.374 181.667 9.81513V18.0431C181.667 18.7844 181.57 19.2875 181.376 19.5515C181.2 19.8167 180.874 19.9487 180.398 19.9487V20.5037C180.715 20.4868 181.182 20.4688 181.801 20.4507C183.052 20.3793 184.306 20.3793 185.558 20.4507C186.21 20.4688 186.695 20.4868 187.012 20.5037V19.9487C186.448 19.9487 186.051 19.8167 185.822 19.5515C185.593 19.2875 185.477 18.7844 185.477 18.0431V10.8057L185.476 10.7233L185.472 10.4559C185.512 10.0137 185.631 9.5821 185.822 9.18108C186.069 8.70385 186.386 8.32477 186.774 8.04272C187.162 7.76067 187.586 7.61964 188.044 7.61964C188.502 7.61964 188.838 7.71667 189.049 7.91072C189.278 8.08672 189.428 8.34282 189.499 8.6779C189.587 8.99492 189.631 9.374 189.631 9.81513V18.0431C189.631 18.7844 189.534 19.2875 189.34 19.5515C189.164 19.8167 188.838 19.9487 188.361 19.9487V20.5037C188.679 20.4868 189.146 20.4688 189.763 20.4507C190.389 20.4152 191.015 20.3975 191.642 20.3977C192.295 20.3977 192.956 20.4157 193.626 20.4507C194.297 20.4688 194.8 20.4868 195.135 20.5037V19.9487C194.518 19.9487 194.077 19.8167 193.811 19.5515C193.564 19.2875 193.441 18.7844 193.441 18.0431V10.9264C193.441 10.0442 193.379 9.33903 193.256 8.8099C193.132 8.26272 192.93 7.82272 192.647 7.48764C192.365 7.16949 191.995 6.92354 191.536 6.74641C191.078 6.55236 190.478 6.45533 189.738 6.45533C188.838 6.45533 187.991 6.64036 187.198 7.01041C186.438 7.37369 185.822 8.06641 185.349 9.08856C185.333 8.99517 185.314 8.90225 185.292 8.8099C185.169 8.26272 184.966 7.82272 184.684 7.48764C184.402 7.16949 184.031 6.92354 183.573 6.74641ZM170.094 17.6201V6.53431C169.547 6.65841 168.948 6.75544 168.295 6.82538C167.661 6.87841 166.973 6.90436 166.231 6.90436C165.702 6.90436 165.156 6.87841 164.591 6.82538V7.38159C165.244 7.38159 165.685 7.57564 165.914 7.96374C166.161 8.3338 166.284 8.91595 166.284 9.70908V16.6408C166.284 17.2229 166.161 17.7521 165.914 18.2282C165.705 18.6641 165.386 19.0381 164.988 19.3135C164.618 19.5783 164.173 19.7175 163.718 19.7106C163.278 19.7106 162.943 19.6215 162.713 19.4455C162.475 19.2375 162.308 18.96 162.236 18.6524C162.162 18.2689 162.126 17.8788 162.13 17.4881V6.53431C161.584 6.65841 160.984 6.75544 160.332 6.82538C159.697 6.87841 159.009 6.90436 158.269 6.90436C157.739 6.90436 157.192 6.87841 156.628 6.82538V7.38159C157.28 7.38159 157.721 7.57564 157.95 7.96374C158.197 8.3338 158.32 8.91595 158.32 9.70908V16.4027C158.32 17.2669 158.382 17.9732 158.507 18.5192C158.63 19.0664 158.842 19.5075 159.141 19.8426C159.406 20.1427 159.767 20.3898 160.226 20.5838C160.684 20.7768 161.284 20.8749 162.025 20.8749C162.943 20.8749 163.771 20.6888 164.512 20.3187C165.27 19.9306 165.861 19.2954 166.284 18.4143V20.7948C166.875 20.6493 167.477 20.552 168.084 20.5037C168.719 20.4507 169.406 20.4248 170.147 20.4248C170.695 20.4248 171.241 20.4507 171.788 20.5037V19.9487C171.153 19.9487 170.711 19.7636 170.464 19.3925C170.217 19.0044 170.094 18.4143 170.094 17.6212V17.6201Z" fill="#A0A0A0"/>
<path fill-rule="evenodd" clip-rule="evenodd" d="M118.917 7.17C117.946 6.6939 116.817 6.45585 115.53 6.45585C114.277 6.45585 113.157 6.6939 112.17 7.17C111.2 7.64611 110.433 8.41329 109.868 9.47154C109.321 10.5298 109.047 11.9322 109.047 13.6786C109.047 15.4251 109.321 16.8263 109.867 17.8857C110.431 18.9259 111.199 19.6841 112.169 20.1602C113.157 20.6363 114.277 20.8754 115.53 20.8754C116.817 20.8754 117.946 20.6363 118.917 20.1602C119.886 19.6841 120.645 18.9259 121.191 17.8857C121.738 16.8274 122.011 15.4251 122.011 13.6786C122.011 11.9322 121.738 10.5309 121.191 9.47154C120.645 8.41329 119.886 7.64611 118.917 7.17ZM113.757 8.57236C114.233 7.51411 114.825 6.98498 115.53 6.98498C116.253 6.98498 116.844 7.51411 117.302 8.57236C117.778 9.61257 118.016 11.315 118.016 13.6786C118.016 16.0422 117.778 17.7447 117.302 18.7849C116.844 19.8251 116.253 20.3463 115.53 20.3463C114.825 20.3463 114.233 19.8251 113.757 18.7849C113.281 17.7447 113.043 16.0422 113.043 13.6786C113.043 11.315 113.28 9.61257 113.757 8.57236ZM100.42 25.4785C99.3253 25.4785 98.3472 25.3815 97.483 25.1874C96.6368 25.0114 95.9667 24.7294 95.4725 24.3413C94.9964 23.9701 94.7584 23.5121 94.7584 22.9649C94.7584 22.4177 95.0043 21.9247 95.4985 21.4835C95.9926 21.0605 96.7248 20.7254 97.6951 20.4783L97.932 20.9014C97.6291 21.1289 97.377 21.4171 97.1919 21.7475C97.0509 22.0657 96.9798 22.3917 96.9798 22.7268C96.9798 23.4681 97.3149 24.0322 97.9862 24.4191C98.6744 24.8253 99.5995 25.0284 100.764 25.0284C101.557 25.0284 102.263 24.9223 102.88 24.7113C103.515 24.4992 104.009 24.1811 104.362 23.7591C104.733 23.3349 104.918 22.8148 104.918 22.1977C104.918 21.6686 104.724 21.2184 104.336 20.8484C103.948 20.4952 103.171 20.3192 102.007 20.3192H100.367C99.6446 20.3192 99.0083 20.2403 98.4623 20.0812C97.932 19.9232 97.5179 19.675 97.2178 19.34C96.9189 18.988 96.7688 18.5468 96.7688 18.0177C96.7688 17.2765 97.0599 16.6244 97.642 16.0591C98.0978 15.6169 98.7274 15.1961 99.5307 14.7978C99.0026 14.7321 98.4839 14.6053 97.985 14.4198C97.1919 14.1197 96.5657 13.6606 96.1077 13.0434C95.6485 12.4263 95.4195 11.6332 95.4195 10.6629C95.4195 9.69267 95.6485 8.89841 96.1077 8.28129C96.5657 7.64611 97.1919 7.18693 97.9862 6.90487C98.7793 6.6059 99.6785 6.45585 100.684 6.45585C101.69 6.45585 102.589 6.6059 103.382 6.906C103.906 7.09103 104.355 7.3539 104.733 7.69236C104.957 7.36857 105.23 7.07975 105.552 6.8259C106.152 6.36785 106.796 6.1377 107.483 6.1377C108.047 6.1377 108.472 6.29677 108.754 6.61493C109.054 6.9139 109.204 7.31103 109.204 7.80518C109.204 8.33431 109.062 8.73031 108.78 8.99544C108.498 9.24364 108.181 9.36662 107.827 9.36662C107.517 9.36251 107.218 9.24996 106.981 9.04847C106.733 8.83636 106.593 8.51934 106.558 8.09626C106.528 7.71718 106.634 7.24785 106.876 6.686C106.362 6.90487 105.965 7.15421 105.685 7.43513C105.474 7.6385 105.29 7.86786 105.137 8.1177C105.18 8.17072 105.221 8.226 105.261 8.28129C105.72 8.89841 105.949 9.69154 105.949 10.6618C105.949 11.6321 105.72 12.4263 105.261 13.0434C104.803 13.6606 104.177 14.1197 103.382 14.4198C102.589 14.7188 101.69 14.8689 100.684 14.8689C100.533 14.869 100.383 14.8656 100.232 14.8587C99.9944 15.0201 99.7653 15.1915 99.5465 15.3721C99.4105 15.4784 99.3014 15.6152 99.228 15.7713C99.1545 15.9275 99.1187 16.0987 99.1234 16.2712C99.1234 16.8353 99.4765 17.1174 100.182 17.1174H103.065C104.036 17.1174 104.9 17.2325 105.658 17.4615C106.434 17.6916 107.042 18.0707 107.483 18.5998C107.943 19.1109 108.172 19.7811 108.172 20.6103C108.172 21.4745 107.89 22.2767 107.325 23.0179C106.778 23.7591 105.932 24.3492 104.785 24.7903C103.638 25.2495 102.183 25.4785 100.42 25.4785ZM100.684 14.3928C101.161 14.3928 101.53 14.1288 101.795 13.5996C102.06 13.0525 102.192 12.0732 102.192 10.6629C102.192 9.25154 102.06 8.28128 101.795 7.75216C101.531 7.20498 101.161 6.93195 100.685 6.93195C100.226 6.93195 99.8556 7.20498 99.5735 7.75216C99.3084 8.28128 99.1764 9.25154 99.1764 10.6629C99.1764 12.0732 99.3084 13.0525 99.5735 13.5996C99.8556 14.1288 100.226 14.3928 100.684 14.3928ZM91.3331 7.17C90.3629 6.6939 89.2347 6.45585 87.9474 6.45585C86.6951 6.45585 85.5748 6.6939 84.5876 7.17C83.6173 7.64611 82.8502 8.41329 82.2861 9.47154C81.7389 10.5298 81.4647 11.9322 81.4647 13.6786C81.4647 15.4251 81.7389 16.8263 82.2849 17.8857C82.849 18.9259 83.6162 19.6841 84.5865 20.1602C85.5748 20.6363 86.6951 20.8754 87.9474 20.8754C89.2347 20.8754 90.364 20.6363 91.3331 20.1602C92.3034 19.6841 93.0615 18.9259 93.6087 17.8857C94.1559 16.8274 94.4289 15.4251 94.4289 13.6786C94.4289 11.9322 94.1559 10.5309 93.6087 9.47154C93.0627 8.41329 92.3034 7.64611 91.3331 7.17ZM86.1739 8.57236C86.6511 7.51411 87.2411 6.98498 87.9474 6.98498C88.6694 6.98498 89.2606 7.51411 89.7187 8.57236C90.1959 9.61257 90.4339 11.315 90.4339 13.6786C90.4339 16.0422 90.1959 17.7447 89.7198 18.7849C89.2606 19.8251 88.6706 20.3463 87.9474 20.3463C87.2411 20.3463 86.65 19.8251 86.1739 18.7849C85.6978 17.7447 85.4597 16.0422 85.4597 13.6786C85.4597 11.315 85.6978 9.61257 86.1739 8.57236Z" fill="#A0A0A0"/>
<path d="M74.339 1.77246V2.30272C73.7399 2.31964 73.2808 2.38959 72.9637 2.51369C72.8186 2.56282 72.6875 2.6462 72.5814 2.75677C72.4754 2.86734 72.3976 3.00183 72.3545 3.14887C72.2496 3.44785 72.1966 3.92508 72.1966 4.57718V18.0175C72.1966 18.5635 72.2315 18.9697 72.3026 19.2348C72.3906 19.4988 72.5497 19.6748 72.7787 19.7639C73.0258 19.8519 73.3879 19.8959 73.8629 19.8959H75.1604C75.7583 19.8959 76.3235 19.7549 76.8527 19.4729C77.3829 19.1908 77.8579 18.7937 78.281 18.2815C78.7272 17.7126 79.0844 17.0792 79.3404 16.403C79.6224 15.681 79.8334 14.8777 79.9744 13.9954H80.5836C80.5306 14.5956 80.5047 15.3718 80.5047 16.324C80.5047 16.7302 80.5126 17.3203 80.5306 18.0965C80.5487 18.8727 80.6006 19.6759 80.6886 20.5041C79.6751 20.4667 78.661 20.449 77.6469 20.451C76.5187 20.4341 75.5124 20.4251 74.6301 20.4251H72.9378C72.2496 20.4251 71.5084 20.4341 70.7152 20.451C69.921 20.451 69.1188 20.46 68.3076 20.4781C67.4953 20.4781 66.7282 20.4871 66.0061 20.5041V19.9749C66.5702 19.9399 66.9933 19.8689 67.2753 19.7639C67.5574 19.6579 67.7424 19.4458 67.8315 19.1288C67.9365 18.8106 67.9895 18.3345 67.9895 17.6993V4.57718C67.9895 3.92395 67.9365 3.44897 67.8315 3.14887C67.7968 3.00211 67.7251 2.86668 67.6232 2.7555C67.5212 2.64431 67.3926 2.56106 67.2494 2.51369C66.9673 2.38959 66.5522 2.31964 66.0061 2.30159V1.77246C67.3988 1.82406 68.7924 1.85039 70.1861 1.85144C70.9623 1.85144 71.7205 1.84354 72.4606 1.82549C73.2198 1.80744 73.846 1.79051 74.339 1.77246Z" fill="#A0A0A0"/>
<path fill-rule="evenodd" clip-rule="evenodd" d="M192.447 42.3675C192.41 42.1779 192.435 41.9308 192.524 41.6262L196.251 28.125C195.654 28.3697 195.037 28.5604 194.406 28.6947C193.76 28.8222 193.018 28.8911 192.181 28.9046L192.048 29.304C192.67 29.304 193.057 29.4055 193.209 29.6086C193.36 29.8117 193.379 30.1276 193.265 30.5585L192.383 33.8856C192.328 33.7251 192.232 33.5814 192.106 33.4682C191.89 33.2651 191.592 33.1636 191.212 33.1636C190.452 33.1636 189.748 33.3351 189.101 33.6769C188.451 34.0322 187.866 34.4953 187.371 35.0465C186.85 35.6051 186.409 36.2322 186.058 36.9103C185.713 37.5702 185.439 38.265 185.241 38.9828C185.06 39.6012 184.964 40.241 184.955 40.885C184.955 41.4931 185.051 41.994 185.241 42.3866C185.431 42.7668 185.691 43.0523 186.02 43.2418C186.35 43.4201 186.717 43.5081 187.123 43.5081C187.744 43.5081 188.302 43.3253 188.797 42.9575C189.291 42.5773 189.753 41.994 190.185 41.2077C190.366 40.8873 190.548 40.5274 190.728 40.128L190.603 40.5996C190.488 40.971 190.412 41.3532 190.375 41.7402C190.35 42.0696 190.375 42.3494 190.452 42.5773C190.603 43.1978 191.072 43.5092 191.859 43.5092C192.15 43.5092 192.448 43.4517 192.752 43.3377C193.057 43.2238 193.341 43.0275 193.607 42.7477C193.887 42.469 194.108 42.0707 194.273 41.5495L194.73 40.1618H194.369L194.064 41.017C193.836 41.6646 193.621 42.1012 193.418 42.3291C193.227 42.5457 193.031 42.6529 192.828 42.6529C192.612 42.6529 192.486 42.5581 192.447 42.3675ZM191.433 37.4711C191.29 37.9347 191.134 38.3759 190.965 38.7922C190.648 39.6045 190.312 40.3017 189.956 40.885C189.615 41.4547 189.278 41.8981 188.949 42.2163C188.619 42.5198 188.327 42.6721 188.075 42.6721C187.833 42.6721 187.656 42.5581 187.542 42.3302C187.441 42.0888 187.39 41.7278 187.39 41.246C187.39 40.5612 187.465 39.864 187.618 39.1543C187.77 38.4323 187.979 37.7407 188.245 37.0818C188.49 36.4635 188.796 35.8709 189.158 35.3128C189.501 34.7803 189.862 34.3617 190.242 34.0571C190.634 33.7525 191.021 33.6013 191.402 33.6013C191.655 33.6013 191.859 33.6904 192.011 33.8676C192.117 33.9826 192.198 34.1496 192.255 34.3707L191.433 37.4711Z" fill="#A0A0A0"/>
<path d="M179.793 43.2414H177.455L179.736 35.0461C179.851 34.6659 179.888 34.3996 179.851 34.2473C179.813 34.095 179.699 34.0194 179.508 34.0194C179.268 34.0194 179.045 34.1401 178.842 34.3804C178.639 34.6208 178.431 35.0461 178.215 35.6553L177.891 36.5477H177.53L178.024 35.1217C178.203 34.614 178.424 34.2225 178.69 33.9427C178.956 33.6516 179.249 33.4486 179.566 33.3346C179.883 33.2207 180.205 33.1631 180.535 33.1631C180.941 33.1631 181.239 33.2455 181.428 33.4113C181.631 33.576 181.759 33.7915 181.81 34.0578C181.874 34.3447 181.886 34.6408 181.847 34.9321C181.822 35.2368 181.771 35.5346 181.695 35.8257L181.389 37.0182L181.467 36.8151C181.822 35.9148 182.164 35.1984 182.493 34.6659C182.836 34.121 183.197 33.734 183.577 33.5061C183.95 33.2797 184.378 33.1609 184.814 33.1631C185.27 33.1631 185.618 33.2962 185.86 33.5625C186.114 33.8288 186.24 34.1582 186.24 34.5519C186.24 34.8678 186.163 35.1668 186.012 35.4455C185.864 35.707 185.655 35.9288 185.403 36.0919C185.163 36.2442 184.884 36.3198 184.567 36.3198C184.25 36.3198 183.996 36.2375 183.805 36.0728C183.628 35.908 183.539 35.6666 183.539 35.3507C183.539 35.0709 183.603 34.8182 183.73 34.5892C183.852 34.3662 184.02 34.1719 184.224 34.0194C184.427 33.8547 184.649 33.7408 184.89 33.6764C184.863 33.6503 184.83 33.631 184.795 33.62C184.752 33.6066 184.707 33.6001 184.662 33.6009C184.383 33.6009 184.098 33.7024 183.805 33.9055C183.514 34.095 183.21 34.4064 182.893 34.8374C182.576 35.2683 182.253 35.8381 181.924 36.5477C181.552 37.3869 181.222 38.2439 180.934 39.1155C180.791 39.5375 180.646 39.991 180.502 40.4773L179.793 43.2414Z" fill="#A0A0A0"/>
<path fill-rule="evenodd" clip-rule="evenodd" d="M172.688 40.304L172.608 40.5996C172.488 41.029 172.405 41.468 172.361 41.9117C172.323 42.3178 172.386 42.6597 172.55 42.9383C172.804 43.3185 173.235 43.5092 173.843 43.5092C174.136 43.5092 174.427 43.4517 174.719 43.3377C175.022 43.2238 175.308 43.0275 175.574 42.7477C175.84 42.4566 176.063 42.0504 176.24 41.5315L176.716 40.1438H176.354L176.068 40.9989C175.84 41.6578 175.619 42.0956 175.404 42.311C175.188 42.5254 174.978 42.6337 174.775 42.6337C174.611 42.6337 174.503 42.5829 174.453 42.4814C174.413 42.3523 174.4 42.2164 174.414 42.082C174.439 41.9208 174.477 41.7619 174.528 41.6071L176.982 33.1636C176.6 33.2548 176.212 33.3185 175.821 33.3542C175.428 33.3926 175.004 33.4174 174.547 33.4298L174.272 34.4475C174.261 34.1891 174.185 33.9376 174.053 33.7153C173.954 33.5419 173.81 33.399 173.635 33.3018C173.461 33.2045 173.263 33.1568 173.064 33.1636C172.506 33.1636 171.949 33.3351 171.391 33.6769C170.797 34.0499 170.265 34.5118 169.812 35.0465C169.3 35.6297 168.854 36.2672 168.481 36.9476C168.107 37.6299 167.807 38.3504 167.587 39.0968C167.38 39.7683 167.271 40.4665 167.265 41.1693C167.265 41.8801 167.429 42.4498 167.759 42.8808C168.088 43.2994 168.595 43.5081 169.28 43.5081C169.761 43.5081 170.224 43.3693 170.669 43.0906C171.124 42.8108 171.555 42.3483 171.961 41.7029C172.213 41.3137 172.455 40.8478 172.688 40.304ZM171.049 42.2343C170.757 42.5006 170.497 42.6337 170.269 42.6337C170.079 42.6337 169.933 42.5389 169.831 42.3483C169.742 42.1452 169.698 41.8101 169.698 41.3408C169.698 40.6684 169.774 39.9779 169.926 39.2683C170.079 38.5575 170.282 37.8738 170.535 37.2149C170.802 36.5549 171.093 35.966 171.41 35.4459C171.727 34.9269 172.044 34.514 172.361 34.2094C172.69 33.9048 173.001 33.7536 173.293 33.7536C173.596 33.7536 173.812 33.9059 173.939 34.2094C174.066 34.4847 174.098 34.8536 174.037 35.3151L173.476 37.3932L173.54 37.0626C173.337 37.8738 173.095 38.6218 172.817 39.3066C172.574 39.9189 172.282 40.5101 171.942 41.0745C171.638 41.5687 171.34 41.9557 171.049 42.2343ZM164.708 41.6262C164.619 41.9308 164.594 42.1779 164.633 42.3675C164.67 42.5581 164.797 42.6529 165.013 42.6529C165.216 42.6529 165.412 42.5457 165.602 42.3302C165.805 42.1012 166.02 41.6646 166.248 41.017L166.553 40.1618H166.914L166.458 41.5495C166.293 42.0696 166.071 42.469 165.792 42.7477C165.556 43.0068 165.263 43.2086 164.936 43.3377C164.651 43.4484 164.348 43.5065 164.043 43.5092C163.257 43.5092 162.788 43.1978 162.636 42.5773C162.555 42.306 162.53 42.0215 162.56 41.7402C162.585 41.4107 162.661 41.0294 162.788 40.5996L162.913 40.128C162.732 40.5274 162.55 40.8873 162.369 41.2077C161.939 41.994 161.476 42.5773 160.982 42.9564C160.5 43.3203 159.911 43.5147 159.308 43.5092C158.903 43.5092 158.535 43.4189 158.205 43.2429C157.866 43.042 157.594 42.7437 157.426 42.3866C157.235 41.994 157.14 41.4931 157.14 40.885C157.14 40.3017 157.235 39.6665 157.426 38.9828C157.615 38.2856 157.888 37.5952 158.243 36.9103C158.593 36.2324 159.035 35.6054 159.555 35.0465C160.075 34.4757 160.651 34.0199 161.285 33.6769C161.936 33.3337 162.661 33.1574 163.396 33.1636C163.776 33.1636 164.074 33.2651 164.29 33.4682C164.414 33.5776 164.507 33.7164 164.568 33.8856L165.449 30.5585C165.565 30.1276 165.545 29.8105 165.393 29.6075C165.241 29.4044 164.854 29.3028 164.233 29.3028L164.366 28.9046C165.113 28.9003 165.857 28.8301 166.591 28.6947C167.222 28.5604 167.839 28.3697 168.436 28.125L164.708 41.6262ZM163.149 38.7922C163.318 38.3747 163.475 37.9347 163.617 37.4711L164.44 34.3707C164.4 34.1857 164.316 34.013 164.195 33.8676C164.12 33.7802 164.027 33.7108 163.921 33.6647C163.816 33.6186 163.702 33.5969 163.587 33.6013C163.207 33.6013 162.82 33.7536 162.427 34.0571C162.046 34.3617 161.685 34.7803 161.343 35.3128C160.981 35.8703 160.675 36.4625 160.43 37.0807C160.16 37.7519 159.95 38.4459 159.803 39.1543C159.653 39.8415 159.576 40.5427 159.574 41.246C159.574 41.7278 159.625 42.0888 159.726 42.3291C159.84 42.5581 160.018 42.6721 160.259 42.6721C160.512 42.6721 160.804 42.5198 161.133 42.2152C161.464 41.8993 161.799 41.4547 162.142 40.8839C162.537 40.2168 162.874 39.517 163.149 38.7922Z" fill="#A0A0A0"/>
<path d="M146.668 43.2423H149.007L149.227 42.3826L149.216 42.4447C149.457 41.5568 149.729 40.7016 150.034 39.8769C150.33 39.0898 150.659 38.3159 151.022 37.5573C151.365 36.8465 151.707 36.226 152.05 35.6935C152.392 35.161 152.721 34.7492 153.038 34.457C153.355 34.1524 153.646 34.0012 153.912 34.0012C154.128 34.0012 154.261 34.0768 154.312 34.2291C154.364 34.4019 154.371 34.5855 154.331 34.7616C154.293 34.9677 154.242 35.1711 154.179 35.3708L152.449 40.6001C152.271 41.1326 152.169 41.5884 152.145 41.9686C152.119 42.3488 152.189 42.6602 152.353 42.9005C152.481 43.0911 152.658 43.2367 152.886 43.3382C153.127 43.451 153.413 43.5097 153.742 43.5097C154.046 43.5097 154.35 43.4522 154.655 43.3382C154.972 43.2367 155.263 43.046 155.529 42.7673C155.808 42.4887 156.037 42.0825 156.214 41.55L156.689 40.1623H156.328L156.023 41.0175C155.783 41.6775 155.555 42.1141 155.34 42.3296C155.137 42.5462 154.94 42.6534 154.75 42.6534C154.546 42.6534 154.42 42.571 154.369 42.4052C154.319 42.2292 154.35 41.9686 154.464 41.6267L156.328 36.0353C156.493 35.5412 156.575 35.0786 156.575 34.6477C156.587 34.2043 156.468 33.8489 156.214 33.5826C155.973 33.304 155.542 33.1652 154.921 33.1652C154.452 33.1652 154.002 33.2667 153.571 33.4687C153.14 33.6718 152.721 34.026 152.316 34.5337C151.91 35.0279 151.491 35.7003 151.06 36.5487C150.774 37.121 150.512 37.7047 150.274 38.2985L150.908 35.8266C150.985 35.522 151.041 35.2174 151.079 34.9139C151.118 34.598 151.104 34.3114 151.041 34.0576C150.981 33.7955 150.825 33.5651 150.605 33.4111C150.389 33.2464 150.072 33.1641 149.653 33.1641C149.146 33.1641 148.683 33.304 148.265 33.5826C147.847 33.8613 147.504 34.3746 147.238 35.1226L146.744 36.5487H147.105L147.429 35.6551C147.657 35.0346 147.865 34.6093 148.056 34.3814C148.259 34.1411 148.48 34.0204 148.722 34.0204C148.899 34.0204 149.007 34.0711 149.045 34.1727C149.095 34.2742 149.109 34.4006 149.083 34.5529C149.054 34.7197 149.016 34.8847 148.969 35.047L146.668 43.2423Z" fill="#A0A0A0"/>
<path fill-rule="evenodd" clip-rule="evenodd" d="M141.821 40.6001L141.902 40.3045C141.698 40.7901 141.455 41.258 141.175 41.7034C140.769 42.3488 140.338 42.8125 139.881 43.0911C139.438 43.3698 138.975 43.5086 138.493 43.5086C137.808 43.5086 137.302 43.2999 136.972 42.8813C136.642 42.4503 136.477 41.8806 136.477 41.1698C136.477 40.5109 136.585 39.8205 136.801 39.0973C137.021 38.3509 137.321 37.6304 137.695 36.9481C138.067 36.2674 138.514 35.6299 139.026 35.047C139.479 34.5123 140.011 34.0504 140.604 33.6774C141.161 33.3355 141.72 33.1641 142.277 33.1641C142.708 33.1641 143.038 33.348 143.267 33.7169C143.389 33.9053 143.462 34.149 143.486 34.448L143.761 33.4303C144.217 33.4179 144.642 33.3931 145.035 33.3547C145.441 33.3164 145.827 33.2532 146.194 33.1641L143.742 41.6087C143.69 41.7634 143.652 41.9223 143.628 42.0837C143.613 42.218 143.626 42.3539 143.666 42.483C143.717 42.5846 143.824 42.6353 143.989 42.6353C144.192 42.6353 144.401 42.5282 144.616 42.3127C144.832 42.0972 145.054 41.6583 145.282 41.0006L145.567 40.1443H145.928L145.453 41.532C145.276 42.0521 145.054 42.4571 144.788 42.7504C144.551 43.0089 144.258 43.2103 143.932 43.3393C143.654 43.451 143.357 43.5091 143.057 43.5108C142.449 43.5108 142.018 43.3202 141.764 42.94C141.599 42.6613 141.536 42.3194 141.574 41.9133C141.619 41.4696 141.701 41.0295 141.821 40.6001ZM139.482 42.6342C139.711 42.6342 139.97 42.5011 140.262 42.2348C140.553 41.9562 140.851 41.5692 141.156 41.075C141.459 40.5809 141.752 39.992 142.03 39.3071C142.309 38.6223 142.55 37.8743 142.753 37.062L142.689 37.3937L143.251 35.3167C143.311 34.8541 143.278 34.4852 143.153 34.211C143.025 33.9064 142.81 33.7541 142.505 33.7541C142.214 33.7541 141.904 33.9064 141.574 34.2099C141.257 34.5145 140.94 34.9263 140.623 35.4464C140.306 35.9654 140.014 36.5554 139.748 37.2143C139.492 37.882 139.289 38.5685 139.14 39.2677C138.991 39.9489 138.914 40.644 138.912 41.3413C138.912 41.8106 138.956 42.1468 139.045 42.3488C139.147 42.5394 139.292 42.6342 139.482 42.6342Z" fill="#A0A0A0"/>
<path d="M137.796 33.81L137.854 33.4298H135.588L136.484 30.3115C136.109 30.4038 135.728 30.4675 135.343 30.5021C134.951 30.5394 134.525 30.5653 134.07 30.5777L133.252 33.4298H131.521L131.426 33.81H133.143L131.197 40.5996C131.032 41.1569 130.976 41.6578 131.027 42.1012C131.09 42.5322 131.267 42.8752 131.559 43.1279C131.863 43.3817 132.301 43.5092 132.871 43.5092C133.518 43.5092 134.075 43.3377 134.545 42.9947C135.014 42.6529 135.382 42.0888 135.648 41.3024L136.028 40.1618H135.666L135.382 40.9414C135.153 41.5755 134.9 42.0189 134.62 42.2727C134.354 42.5265 134.088 42.6529 133.821 42.6529C133.717 42.6564 133.613 42.6358 133.517 42.5928C133.422 42.5497 133.337 42.4854 133.271 42.4047C133.143 42.2411 133.131 41.9816 133.232 41.6262L135.479 33.81H137.796ZM131.498 29.6458C131.372 29.9753 131.201 30.4581 130.985 31.0911C130.782 31.7116 130.58 32.5239 130.377 33.5246H129.997C130.034 33.3475 130.06 33.1636 130.072 32.974C130.097 32.804 130.109 32.6325 130.111 32.4607C130.111 31.9654 130.009 31.5356 129.806 31.1678C129.611 30.7821 129.298 30.4686 128.913 30.2731C128.52 30.0452 128.012 29.9313 127.392 29.9313C126.719 29.9313 126.148 30.1084 125.68 30.4638C125.211 30.8056 124.976 31.3573 124.976 32.1177C124.976 32.5871 125.083 33.0316 125.299 33.449C125.528 33.8552 125.813 34.2545 126.155 34.6472C126.511 35.0274 126.884 35.4143 127.277 35.807C127.67 36.1872 128.038 36.5809 128.38 36.9859C128.722 37.3921 129.002 37.8231 129.217 38.2788C129.445 38.7234 129.559 39.2107 129.559 39.7433C129.559 40.4157 129.394 40.9922 129.065 41.4739C128.743 41.9472 128.321 42.3433 127.828 42.6337C127.312 42.9291 126.754 43.1469 126.174 43.2802C125.616 43.4293 125.041 43.5063 124.463 43.5092C123.892 43.5092 123.417 43.4641 123.037 43.3761C122.712 43.3149 122.398 43.2058 122.105 43.0523C121.856 42.9158 121.609 42.7766 121.363 42.6348C121.251 42.5409 121.121 42.4696 120.982 42.425C120.894 42.3805 120.797 42.3544 120.698 42.3483C120.532 42.3483 120.393 42.4306 120.279 42.5965C120.13 42.8442 120.003 43.1047 119.899 43.3749H119.518C119.832 42.6017 120.093 41.8078 120.299 40.999C120.45 40.4157 120.621 39.6868 120.812 38.8114H121.192C121.139 39.0632 121.095 39.3168 121.059 39.5718C121.021 39.8256 121.008 40.0795 121.021 40.3333C121.059 41.2201 121.331 41.9049 121.839 42.3866C122.359 42.8684 123.119 43.1087 124.12 43.1087C124.969 43.1087 125.61 42.9316 126.041 42.5773C126.472 42.2095 126.688 41.677 126.688 40.9798C126.688 40.4473 126.586 39.9644 126.383 39.5345C126.191 39.0874 125.935 38.6708 125.623 38.298C125.3 37.9123 124.964 37.5382 124.615 37.1766C124.265 36.8149 123.929 36.4405 123.607 36.054C123.295 35.6701 123.033 35.2486 122.827 34.7995C122.619 34.3193 122.516 33.8006 122.523 33.2775C122.523 32.6446 122.657 32.0929 122.923 31.6236C123.191 31.1658 123.554 30.7704 123.987 30.4638C124.431 30.1467 124.926 29.9086 125.451 29.7598C125.962 29.5985 126.494 29.5152 127.03 29.5127C127.714 29.5127 128.278 29.5951 128.722 29.7609C129.166 29.9245 129.547 30.1219 129.864 30.3498L130.225 30.5777C130.339 30.6285 130.428 30.6533 130.491 30.6533C130.668 30.6533 130.878 30.3182 131.118 29.6458H131.498Z" fill="#A0A0A0"/>
<path fill-rule="evenodd" clip-rule="evenodd" d="M113.143 42.3675C113.104 42.1779 113.13 41.9308 113.219 41.6262L116.946 28.125C116.349 28.3697 115.732 28.5604 115.101 28.6947C114.455 28.8222 113.713 28.8911 112.876 28.9046L112.743 29.304C113.364 29.304 113.752 29.4055 113.903 29.6086C114.055 29.8117 114.074 30.1276 113.961 30.5585L113.078 33.8856C113.023 33.7251 112.927 33.5814 112.801 33.4682C112.585 33.2651 112.287 33.1636 111.907 33.1636C111.146 33.1636 110.443 33.3351 109.796 33.6769C109.146 34.0322 108.561 34.4953 108.066 35.0465C107.545 35.6051 107.104 36.2322 106.754 36.9103C106.408 37.5702 106.134 38.265 105.936 38.9828C105.755 39.6011 105.659 40.241 105.65 40.885C105.65 41.4931 105.746 41.994 105.936 42.3866C106.126 42.7668 106.386 43.0523 106.715 43.2418C107.045 43.4201 107.412 43.5081 107.819 43.5081C108.439 43.5081 108.998 43.3253 109.492 42.9575C109.986 42.5773 110.448 41.994 110.879 41.2077C111.06 40.8873 111.242 40.5274 111.423 40.128L111.299 40.5996C111.184 40.9709 111.107 41.3531 111.07 41.7402C111.04 42.0215 111.065 42.306 111.146 42.5773C111.298 43.1978 111.766 43.5092 112.554 43.5092C112.845 43.5092 113.143 43.4517 113.447 43.3377C113.752 43.2238 114.036 43.0275 114.302 42.7477C114.582 42.469 114.803 42.0707 114.968 41.5495L115.425 40.1618H115.064L114.759 41.017C114.531 41.6646 114.316 42.1012 114.113 42.3291C113.922 42.5457 113.726 42.6529 113.523 42.6529C113.308 42.6529 113.181 42.5581 113.143 42.3675ZM112.127 37.4711C111.985 37.9347 111.829 38.3759 111.659 38.7922C111.343 39.6045 111.007 40.3017 110.651 40.885C110.31 41.4547 109.973 41.8981 109.644 42.2163C109.315 42.5198 109.023 42.6721 108.769 42.6721C108.528 42.6721 108.351 42.5581 108.237 42.3302C108.136 42.0888 108.085 41.7278 108.085 41.246C108.085 40.5612 108.16 39.864 108.313 39.1543C108.465 38.4323 108.674 37.7407 108.94 37.0818C109.185 36.4634 109.491 35.8708 109.854 35.3128C110.196 34.7803 110.557 34.3617 110.937 34.0571C111.33 33.7525 111.717 33.6013 112.097 33.6013C112.351 33.6013 112.554 33.6904 112.706 33.8676C112.812 33.9826 112.893 34.1496 112.95 34.3707L112.127 37.4711Z" fill="#A0A0A0"/>
<path d="M97.5169 43.2423H95.1781L97.4796 35.047C97.5304 34.8699 97.5676 34.7052 97.5925 34.5529C97.6207 34.4254 97.6077 34.2922 97.5552 34.1727C97.5169 34.0711 97.4086 34.0204 97.2314 34.0204C96.9911 34.0204 96.7689 34.1411 96.5658 34.3814C96.3763 34.6093 96.1664 35.0346 95.9385 35.6563L95.6158 36.5487H95.2548L95.749 35.1226C96.0152 34.3746 96.3582 33.8613 96.7756 33.5826C97.1931 33.304 97.6556 33.1652 98.1633 33.1652C98.5819 33.1652 98.8989 33.2464 99.1144 33.4111C99.3354 33.5649 99.4914 33.7953 99.5522 34.0576C99.6153 34.3114 99.6277 34.5969 99.5905 34.9139C99.5517 35.2213 99.4945 35.5261 99.419 35.8266L98.785 38.2997C99.0535 37.6351 99.3152 37.053 99.5713 36.5487C100.002 35.7003 100.42 35.0279 100.826 34.5337C101.232 34.026 101.649 33.6718 102.08 33.4687C102.513 33.2656 102.962 33.1641 103.431 33.1641C104.051 33.1641 104.484 33.304 104.724 33.5826C104.978 33.8489 105.098 34.2031 105.085 34.6477C105.085 35.0786 105.004 35.5412 104.838 36.0353L102.975 41.6267C102.86 41.9686 102.828 42.2292 102.879 42.4052C102.93 42.571 103.057 42.6534 103.261 42.6534C103.45 42.6534 103.646 42.5462 103.849 42.3307C104.065 42.1141 104.293 41.6764 104.534 41.0175L104.839 40.1623H105.2L104.724 41.55C104.547 42.0825 104.318 42.4887 104.04 42.7685C103.801 43.0294 103.5 43.2254 103.165 43.3382C102.873 43.45 102.564 43.5081 102.252 43.5097C101.923 43.5097 101.637 43.4522 101.397 43.3382C101.168 43.2367 100.991 43.09 100.864 42.9005C100.7 42.6602 100.63 42.3488 100.654 41.9686C100.68 41.5884 100.782 41.1326 100.959 40.6001L102.69 35.3708C102.753 35.1678 102.804 34.9647 102.842 34.7616C102.882 34.5854 102.875 34.4019 102.823 34.2291C102.772 34.0768 102.639 34.0012 102.423 34.0012C102.157 34.0012 101.865 34.1535 101.549 34.457C101.232 34.7492 100.901 35.161 100.56 35.6935C100.18 36.2935 99.8373 36.9159 99.533 37.5573C99.1911 38.2681 98.8606 39.0398 98.5435 39.8769C98.2389 40.7005 97.9682 41.5568 97.7267 42.4447L97.738 42.3826L97.5169 43.2423Z" fill="#A0A0A0"/>
<path fill-rule="evenodd" clip-rule="evenodd" d="M90.4114 40.3041L90.3325 40.5997C90.2127 41.0292 90.1297 41.4682 90.0843 41.9118C90.0459 42.3179 90.1091 42.6598 90.2738 42.9385C90.5276 43.3187 90.9586 43.5093 91.5679 43.5093C91.893 43.507 92.2142 43.4383 92.5118 43.3073C92.8094 43.1763 93.0771 42.9859 93.2985 42.7478C93.5648 42.4567 93.7859 42.0506 93.9642 41.5316L94.438 40.1439H94.077L93.7927 40.9991C93.5636 41.6579 93.3414 42.0957 93.127 42.3112C92.9115 42.5255 92.7017 42.6338 92.4997 42.6338C92.3339 42.6338 92.2267 42.5831 92.176 42.4815C92.1363 42.3524 92.1232 42.2165 92.1376 42.0821C92.1635 41.9174 92.2008 41.7595 92.2527 41.6072L94.7054 33.1637C94.3239 33.2549 93.9363 33.3186 93.5456 33.3544C93.1519 33.3927 92.7276 33.4175 92.2707 33.4299L91.9954 34.4476C91.9837 34.1892 91.9085 33.9378 91.7766 33.7154C91.6776 33.5422 91.5332 33.3994 91.3591 33.3022C91.185 33.205 90.9876 33.1571 90.7883 33.1637C90.2298 33.1637 89.6713 33.3352 89.114 33.677C88.5567 34.02 88.0309 34.4758 87.5356 35.0467C87.0234 35.6295 86.577 36.2671 86.2044 36.9477C85.8304 37.63 85.5308 38.3506 85.3108 39.0969C85.1034 39.7685 84.9947 40.4666 84.9882 41.1694C84.9882 41.8802 85.1529 42.4499 85.4823 42.8809C85.8117 43.2995 86.3194 43.5082 87.0031 43.5082C87.4849 43.5082 87.9486 43.3694 88.3908 43.0908C88.8477 42.811 89.2799 42.3484 89.6849 41.7031C89.9365 41.3138 90.1779 40.8479 90.4114 40.3041ZM88.7722 42.2345C88.4811 42.5007 88.2205 42.6338 87.9926 42.6338C87.8019 42.6338 87.6564 42.5391 87.5548 42.3484C87.4668 42.1453 87.4217 41.8103 87.4217 41.3409C87.4217 40.6685 87.4984 39.978 87.6507 39.2684C87.8019 38.5576 88.005 37.8739 88.2588 37.2151C88.5251 36.5551 88.8162 35.9661 89.1332 35.446C89.4502 34.9271 89.7672 34.5141 90.0843 34.2095C90.4137 33.9049 90.724 33.7537 91.0162 33.7537C91.3208 33.7537 91.5351 33.906 91.6626 34.2095C91.789 34.4848 91.8206 34.8537 91.7608 35.3152L91.1989 37.3933L91.2632 37.0628C91.0602 37.8739 90.8198 38.6219 90.5412 39.3068C90.2614 39.9905 89.9703 40.5805 89.6657 41.0747C89.3611 41.5688 89.0632 41.9558 88.7722 42.2345Z" fill="#A0A0A0"/>
<path d="M79.9022 43.2414H77.5635L79.8447 35.0461C79.9587 34.6659 79.997 34.3996 79.9587 34.2473C79.9214 34.095 79.8075 34.0194 79.6168 34.0194C79.3765 34.0194 79.1542 34.1401 78.9512 34.3804C78.7481 34.6208 78.5394 35.0461 78.3239 35.6553L78.0001 36.5477H77.6391L78.1332 35.1217C78.3115 34.614 78.5326 34.2225 78.7989 33.9427C79.0651 33.6516 79.3573 33.4486 79.6744 33.3346C79.9902 33.2207 80.314 33.1631 80.6446 33.1631C81.0496 33.1631 81.3475 33.2455 81.537 33.4113C81.7387 33.5731 81.8743 33.803 81.9183 34.0578C81.9815 34.324 81.9939 34.6151 81.9556 34.9321C81.9308 35.2368 81.88 35.5346 81.8033 35.8257L81.4987 37.0182L81.5291 36.9358L81.5754 36.8151C81.9308 35.9148 82.2726 35.1984 82.602 34.6659C82.945 34.121 83.306 33.734 83.6862 33.5061C84.0588 33.2797 84.4868 33.1609 84.9228 33.1631C85.3786 33.1631 85.7272 33.2962 85.9686 33.5625C86.2213 33.8288 86.3488 34.1582 86.3488 34.5519C86.3488 34.8678 86.2721 35.1668 86.1198 35.4455C85.9722 35.7069 85.7636 35.9287 85.5117 36.0919C85.2604 36.2469 84.9697 36.326 84.6746 36.3198C84.3587 36.3198 84.1048 36.2375 83.9141 36.0728C83.737 35.908 83.6479 35.6666 83.6479 35.3507C83.6479 35.0709 83.7111 34.8182 83.8385 34.5892C83.9649 34.3613 84.1296 34.1717 84.3327 34.0194C84.5358 33.8547 84.7569 33.7408 84.9984 33.6764C84.9716 33.6505 84.9391 33.6312 84.9036 33.62C84.8783 33.6115 84.8522 33.6058 84.8257 33.6031C84.807 33.6013 84.7882 33.6006 84.7693 33.6009C84.4918 33.6009 84.2052 33.7024 83.9141 33.9055C83.6231 34.095 83.3185 34.4064 83.0014 34.8374C82.6855 35.2683 82.3617 35.8381 82.0312 36.5477C81.6595 37.3868 81.3296 38.2438 81.0429 39.1155C80.8996 39.5363 80.7552 39.991 80.6108 40.4773L79.9022 43.2414Z" fill="#A0A0A0"/>
<path fill-rule="evenodd" clip-rule="evenodd" d="M76.3449 30.4833C75.7109 30.0264 74.6966 29.7985 73.3021 29.7985C72.8712 29.7985 72.4402 29.8052 72.0081 29.8177C71.5907 29.8301 71.1089 29.8368 70.564 29.8368H69.6129C69.2699 29.8233 68.9473 29.8177 68.6427 29.8177C68.3891 29.8065 68.1356 29.7937 67.8822 29.7793L67.7875 30.1595C68.2816 30.1595 68.6178 30.2227 68.795 30.3502C68.9856 30.463 69.0736 30.6412 69.0612 30.8827C69.0356 31.1906 68.9847 31.4959 68.9089 31.7954L66.3987 41.2272C66.2858 41.683 66.1583 42.026 66.0185 42.2539C65.8921 42.4718 65.6889 42.6348 65.4487 42.7108C65.2073 42.7864 64.8711 42.8371 64.4401 42.862L64.3645 43.2422C64.5789 43.2309 64.8395 43.2241 65.143 43.2241C65.4476 43.2106 65.7714 43.2049 66.1132 43.2049C67.0702 43.1758 68.028 43.1822 68.9845 43.2241C69.5046 43.2354 69.9807 43.2433 70.4117 43.2433C71.2353 43.2433 72.0149 43.1598 72.7505 42.9951C73.4285 42.8413 74.077 42.5784 74.6707 42.2166C75.2018 41.9002 75.6512 41.4636 75.9828 40.9418C76.3122 40.4341 76.4769 39.8395 76.4769 39.1547C76.4769 38.3807 76.161 37.7151 75.527 37.1578C74.9065 36.5993 73.9227 36.2699 72.579 36.1683C73.4173 36.0479 74.2318 35.7979 74.9933 35.4271C75.7041 35.0593 76.2614 34.6091 76.6676 34.0766C77.0764 33.571 77.298 32.9397 77.2949 32.2896C77.2949 31.5291 76.9801 30.9267 76.3449 30.4833ZM70.2752 36.4165L69.0037 41.2272C68.9281 41.5431 68.8773 41.8229 68.8525 42.0632C68.839 42.3046 68.9021 42.4885 69.042 42.616C69.1819 42.7424 69.4414 42.8056 69.8216 42.8056C70.7219 42.8056 71.4575 42.6341 72.0273 42.2922C72.5855 41.9639 73.0303 41.4731 73.3021 40.8853C73.5808 40.2761 73.7196 39.5913 73.7196 38.832C73.7196 38.3616 73.6372 37.9498 73.4725 37.5955C73.3275 37.2356 73.0667 36.9343 72.7313 36.7392C72.3894 36.5237 71.9325 36.4165 71.3616 36.4165H70.2752ZM70.3609 36.0927H71.2296C71.9517 36.0927 72.5666 35.9088 73.0731 35.541C73.5932 35.1608 73.987 34.6667 74.2532 34.0586C74.5305 33.4561 74.6729 32.8004 74.6707 32.1372C74.6707 31.5032 74.5443 31.0158 74.2905 30.6728C74.0501 30.331 73.6248 30.1595 73.0156 30.1595C72.5733 30.1595 72.2563 30.2486 72.0656 30.4258C71.8761 30.5905 71.7114 30.9515 71.5715 31.5088L70.3609 36.0927Z" fill="#A0A0A0"/>
</g>
<defs>
<clipPath id="clip0_623_323">
<rect width="196.308" height="44" fill="white" transform="translate(0.798096)"/>
</clipPath>
</defs>
</svg>
