<svg width="241" height="44" viewBox="0 0 241 44" fill="none" xmlns="http://www.w3.org/2000/svg">
<g clip-path="url(#clip0_623_294)">
<path d="M135.161 32.4765H140.29V13.129H135.161V32.4765ZM135.161 10.1119H140.29V5.51074H135.161V10.1119Z" fill="#A0A0A0"/>
<path d="M143.596 38.812H148.725V30.2886H148.8C149.893 31.948 151.667 33.0418 154.381 33.0418C159.36 33.0418 162.755 29.0818 162.755 22.8212C162.755 16.7869 159.473 12.6006 154.344 12.6006C151.704 12.6006 149.893 13.8452 148.649 15.5423H148.536V13.1286H143.596V38.812ZM153.288 28.78C150.233 28.78 148.612 26.4795 148.612 22.972C148.612 19.5023 149.893 16.7492 153.1 16.7492C156.268 16.7492 157.549 19.3138 157.549 22.972C157.549 26.6303 155.891 28.78 153.288 28.78Z" fill="#A0A0A0"/>
<path d="M172.986 33.0418C177.814 33.0418 181.132 30.7035 181.132 26.8189C181.132 22.2932 177.55 21.388 174.306 20.7092C171.552 20.1435 168.988 19.9926 168.988 18.3332C168.988 16.9378 170.308 16.1835 172.307 16.1835C174.495 16.1835 175.815 16.9378 176.04 19.012H180.679C180.303 15.1275 177.474 12.6006 172.383 12.6006C167.97 12.6006 164.5 14.5995 164.5 18.7858C164.5 23.0098 167.895 23.9526 171.364 24.6315C174.004 25.1595 176.455 25.348 176.455 27.196C176.455 28.5538 175.174 29.4212 172.911 29.4212C170.61 29.4212 169.026 28.4406 168.687 26.2155H163.935C164.236 30.3263 167.367 33.0418 172.986 33.0418Z" fill="#A0A0A0"/>
<path d="M200.606 32.4764V13.1289H195.476V24.2924C195.476 26.8569 194.006 28.6672 191.592 28.6672C189.404 28.6672 188.387 27.4226 188.387 25.1598V13.1289H183.295V26.0272C183.295 30.2512 185.708 33.0044 190.008 33.0044C192.724 33.0044 194.232 31.9861 195.552 30.2136H195.666V32.4764H200.606Z" fill="#A0A0A0"/>
<path d="M203.923 32.476H209.052V21.2372C209.052 18.6726 210.448 17.0132 212.523 17.0132C214.408 17.0132 215.502 18.1446 215.502 20.332V32.476H220.631V21.2372C220.631 18.6726 221.951 17.0132 224.1 17.0132C225.987 17.0132 227.08 18.1446 227.08 20.332V32.476H232.21V19.4646C232.21 15.2406 229.908 12.6006 225.835 12.6006C223.384 12.6006 221.347 13.8829 220.027 15.9949H219.952C219.01 13.9583 217.048 12.6006 214.596 12.6006C211.919 12.6006 210.034 13.9583 208.978 15.7309H208.864V13.1286H203.923V32.476Z" fill="#A0A0A0"/>
<path d="M1.47717 32.4765H6.60631V5.51074H1.47717V32.4765Z" fill="#A0A0A0"/>
<path d="M19.1478 33.0418C25.1443 33.0418 29.2551 28.5915 29.2551 22.8212C29.2551 17.0509 25.1443 12.6006 19.1478 12.6006C13.1511 12.6006 9.04028 17.0509 9.04028 22.8212C9.04028 28.5915 13.1511 33.0418 19.1478 33.0418ZM19.1478 29.1195C15.9798 29.1195 14.2448 26.5926 14.2448 22.8212C14.2448 19.0498 15.9798 16.4852 19.1478 16.4852C22.278 16.4852 24.0506 19.0498 24.0506 22.8212C24.0506 26.5926 22.278 29.1195 19.1478 29.1195Z" fill="#A0A0A0"/>
<path d="M40.1628 39.076C43.0291 39.076 45.5183 38.3972 47.1399 36.8886C48.5731 35.5686 49.4405 33.7206 49.4405 31.0052V13.1286H44.5V15.1652H44.4245C43.2553 13.5435 41.4828 12.6006 39.0691 12.6006C34.1663 12.6006 30.6965 16.2966 30.6965 22.0669C30.6965 27.9126 34.9205 31.3069 39.22 31.3069C41.6713 31.3069 43.1423 30.3263 44.2736 29.044H44.3868V31.156C44.3868 33.796 42.9913 35.1915 40.0873 35.1915C37.7113 35.1915 36.6176 34.2486 36.2028 33.0418H31.1113C31.6393 36.8132 34.8828 39.076 40.1628 39.076ZM40.0873 27.196C37.4473 27.196 35.7125 25.2726 35.7125 21.9915C35.7125 18.748 37.4473 16.7115 40.0496 16.7115C43.1423 16.7115 44.6508 19.1252 44.6508 21.9538C44.6508 24.82 43.3308 27.196 40.0873 27.196Z" fill="#A0A0A0"/>
<path d="M61.9078 33.0418C67.9043 33.0418 72.0152 28.5915 72.0152 22.8212C72.0152 17.0509 67.9043 12.6006 61.9078 12.6006C55.9112 12.6006 51.8003 17.0509 51.8003 22.8212C51.8003 28.5915 55.9112 33.0418 61.9078 33.0418ZM61.9078 29.1195C58.7398 29.1195 57.0049 26.5926 57.0049 22.8212C57.0049 19.0498 58.7398 16.4852 61.9078 16.4852C65.038 16.4852 66.8107 19.0498 66.8107 22.8212C66.8107 26.5926 65.038 29.1195 61.9078 29.1195Z" fill="#A0A0A0"/>
<path d="M234.073 9.95229C234.073 9.08441 234.777 8.38086 235.645 8.38086H238.788C239.656 8.38086 240.36 9.08441 240.36 9.95229C240.36 10.8202 239.656 11.5237 238.788 11.5237H235.645C234.777 11.5237 234.073 10.8202 234.073 9.95229Z" fill="#A0A0A0"/>
<path fill-rule="evenodd" clip-rule="evenodd" d="M103.121 0C115.271 0 125.121 9.84974 125.121 22C125.121 34.1503 115.271 44 103.121 44C90.9707 44 81.121 34.1503 81.121 22C81.121 9.84974 90.9707 0 103.121 0ZM102.326 1.64625C99.8159 1.99946 97.4261 4.01619 95.5709 7.38914C95.0328 8.36751 94.5472 9.44841 94.1242 10.6155C96.6467 9.98159 99.4177 9.60786 102.326 9.55006V1.64625ZM92.2647 11.1439C92.791 9.49254 93.4346 7.97324 94.1774 6.62271C95.097 4.95065 96.1884 3.50675 97.4181 2.39775C90.7313 4.33975 85.4607 9.61047 83.5186 16.2973C84.6277 15.0676 86.0715 13.9762 87.7436 13.0566C89.0942 12.3137 90.6134 11.67 92.2647 11.1439ZM91.7364 13.0032C91.1025 15.5257 90.7288 18.2967 90.671 21.2048H82.7671C83.1203 18.6949 85.1371 16.3051 88.5101 14.45C89.4885 13.9119 90.5693 13.4264 91.7364 13.0032ZM92.2617 21.2048C92.3273 18.0312 92.7843 15.0517 93.5402 12.4192C96.1727 11.6633 99.1522 11.2064 102.326 11.1407V14.5759C101.142 17.6068 98.7271 20.0213 95.6961 21.2048H92.2617ZM90.671 22.7952H82.7671C83.1203 25.3051 85.1371 27.6948 88.5101 29.55C89.4885 30.0881 90.5693 30.5736 91.7364 30.9968C91.1025 28.4743 90.7288 25.7033 90.671 22.7952ZM93.5402 31.5808C92.7843 28.9483 92.3273 25.9688 92.2617 22.7952H95.6961C98.7271 23.9787 101.142 26.3932 102.326 29.4241V32.8593C99.1522 32.7936 96.1727 32.3367 93.5402 31.5808ZM92.2647 32.8561C90.6134 32.33 89.0942 31.6863 87.7436 30.9434C86.0715 30.0238 84.6277 28.9324 83.5186 27.7027C85.4607 34.3895 90.7313 39.6603 97.4181 41.6022C96.1884 40.4932 95.097 39.0493 94.1774 37.3772C93.4346 36.0268 92.791 34.5074 92.2647 32.8561ZM102.326 42.3537C99.8159 42.0005 97.4261 39.9838 95.5709 36.6109C95.0328 35.6325 94.5472 34.5516 94.1242 33.3846C96.6467 34.0184 99.4177 34.3922 102.326 34.4499V42.3537ZM108.824 41.6022C110.053 40.4932 111.145 39.0493 112.064 37.3772C112.807 36.0268 113.451 34.5074 113.977 32.8561C115.628 32.33 117.147 31.6863 118.498 30.9434C120.17 30.0238 121.614 28.9324 122.723 27.7027C120.781 34.3895 115.511 39.6603 108.824 41.6022ZM112.118 33.3846C111.695 34.5516 111.209 35.6325 110.671 36.6109C108.816 39.9838 106.426 42.0005 103.916 42.3537V34.4499C106.824 34.3922 109.595 34.0184 112.118 33.3846ZM114.505 30.9968C115.672 30.5736 116.754 30.0881 117.732 29.55C121.105 27.6949 123.122 25.3051 123.475 22.7952H115.571C115.513 25.7033 115.139 28.4743 114.505 30.9968ZM113.981 22.7952C113.915 25.9688 113.458 28.9483 112.701 31.5808C110.069 32.3367 107.09 32.7936 103.916 32.8593V29.4266C105.1 26.3946 107.515 23.979 110.547 22.7952H113.981ZM115.571 21.2048H123.475C123.122 18.6949 121.105 16.3051 117.732 14.45C116.754 13.9119 115.672 13.4264 114.505 13.0032C115.139 15.5257 115.513 18.2967 115.571 21.2048ZM112.701 12.4192C113.458 15.0517 113.915 18.0312 113.981 21.2048H110.547C107.515 20.021 105.1 17.6054 103.916 14.5733V11.1407C107.09 11.2064 110.069 11.6633 112.701 12.4192ZM113.977 11.1439C115.628 11.67 117.147 12.3137 118.498 13.0566C120.17 13.9762 121.614 15.0676 122.723 16.2973C120.781 9.61047 115.511 4.33975 108.824 2.39775C110.053 3.50675 111.145 4.95065 112.064 6.62271C112.807 7.97324 113.451 9.49254 113.977 11.1439ZM103.916 1.64625C106.426 1.99946 108.816 4.01619 110.671 7.38914C111.209 8.36752 111.695 9.44841 112.118 10.6155C109.595 9.98159 106.824 9.60786 103.916 9.55006V1.64625Z" fill="#A0A0A0"/>
</g>
<defs>
<clipPath id="clip0_623_294">
<rect width="239.8" height="44" fill="white" transform="translate(0.570557)"/>
</clipPath>
</defs>
</svg>
